<mxfile>
    <diagram id="DmqUQdPyobVjsD5fepj3" name="Page-1">
        <mxGraphModel dx="1122" dy="750" grid="1" gridSize="10" guides="1" tooltips="1" connect="1" arrows="1" fold="1" page="1" pageScale="1" pageWidth="1200" pageHeight="1920" math="0" shadow="0">
            <root>
                <mxCell id="CgCXLuuTw9D1Alfjapi0-0"/>
                <mxCell id="CgCXLuuTw9D1Alfjapi0-1" parent="CgCXLuuTw9D1Alfjapi0-0"/>
                <mxCell id="90j7tSNA-TrawRLlmLK4-0" value="" style="rounded=0;whiteSpace=wrap;html=1;" parent="CgCXLuuTw9D1Alfjapi0-1" vertex="1">
                    <mxGeometry x="1027" y="849.5" width="570" height="465" as="geometry"/>
                </mxCell>
                <mxCell id="90j7tSNA-TrawRLlmLK4-1" style="edgeStyle=orthogonalEdgeStyle;rounded=0;orthogonalLoop=1;jettySize=auto;html=1;exitX=0.5;exitY=1;exitDx=0;exitDy=0;strokeWidth=3;" parent="CgCXLuuTw9D1Alfjapi0-1" source="90j7tSNA-TrawRLlmLK4-2" target="90j7tSNA-TrawRLlmLK4-18" edge="1">
                    <mxGeometry relative="1" as="geometry"/>
                </mxCell>
                <mxCell id="90j7tSNA-TrawRLlmLK4-2" value="Local storage" style="shape=datastore;whiteSpace=wrap;html=1;strokeWidth=3;rounded=1;" parent="CgCXLuuTw9D1Alfjapi0-1" vertex="1">
                    <mxGeometry x="1149.5" y="1019.5" width="85" height="80" as="geometry"/>
                </mxCell>
                <mxCell id="90j7tSNA-TrawRLlmLK4-3" style="edgeStyle=orthogonalEdgeStyle;rounded=0;orthogonalLoop=1;jettySize=auto;html=1;startArrow=classic;startFill=1;strokeWidth=3;" parent="CgCXLuuTw9D1Alfjapi0-1" source="90j7tSNA-TrawRLlmLK4-4" target="90j7tSNA-TrawRLlmLK4-5" edge="1">
                    <mxGeometry relative="1" as="geometry"/>
                </mxCell>
                <mxCell id="90j7tSNA-TrawRLlmLK4-4" value="" style="outlineConnect=0;fontColor=#232F3E;gradientColor=none;fillColor=#232F3E;strokeColor=none;dashed=0;verticalLabelPosition=bottom;verticalAlign=top;align=center;html=1;fontSize=12;fontStyle=0;aspect=fixed;pointerEvents=1;shape=mxgraph.aws4.mobile_client;rounded=1;" parent="CgCXLuuTw9D1Alfjapi0-1" vertex="1">
                    <mxGeometry x="1517" y="1141.47" width="61" height="116.05" as="geometry"/>
                </mxCell>
                <mxCell id="90j7tSNA-TrawRLlmLK4-5" value="" style="verticalLabelPosition=bottom;html=1;verticalAlign=top;strokeWidth=1;align=center;outlineConnect=0;dashed=0;outlineConnect=0;shape=mxgraph.aws3d.end_user;strokeColor=none;fillColor=#777777;aspect=fixed;rounded=1;" parent="CgCXLuuTw9D1Alfjapi0-1" vertex="1">
                    <mxGeometry x="1677" y="1149.27" width="49" height="100.46" as="geometry"/>
                </mxCell>
                <mxCell id="90j7tSNA-TrawRLlmLK4-6" value="" style="group;rounded=1;" parent="CgCXLuuTw9D1Alfjapi0-1" vertex="1" connectable="0">
                    <mxGeometry x="991.75" y="485" width="402.5" height="322.5" as="geometry"/>
                </mxCell>
                <mxCell id="90j7tSNA-TrawRLlmLK4-7" value="" style="shape=image;html=1;verticalAlign=top;verticalLabelPosition=bottom;labelBackgroundColor=#ffffff;imageAspect=0;aspect=fixed;image=https://cdn1.iconfinder.com/data/icons/line-free/24/Smart_watch-128.png;rounded=1;" parent="90j7tSNA-TrawRLlmLK4-6" vertex="1">
                    <mxGeometry x="41.5" y="168.5" width="38" height="38" as="geometry"/>
                </mxCell>
                <mxCell id="90j7tSNA-TrawRLlmLK4-8" value="Echo" style="outlineConnect=0;fontColor=#232F3E;gradientColor=none;strokeColor=#232F3E;fillColor=#ffffff;dashed=0;verticalLabelPosition=bottom;verticalAlign=top;align=center;html=1;fontSize=12;fontStyle=0;aspect=fixed;shape=mxgraph.aws4.resourceIcon;resIcon=mxgraph.aws4.echo;rounded=1;" parent="90j7tSNA-TrawRLlmLK4-6" vertex="1">
                    <mxGeometry x="121.5" y="105.5" width="60" height="60" as="geometry"/>
                </mxCell>
                <mxCell id="90j7tSNA-TrawRLlmLK4-9" value="FireTV" style="outlineConnect=0;fontColor=#232F3E;gradientColor=none;strokeColor=#232F3E;fillColor=#ffffff;dashed=0;verticalLabelPosition=bottom;verticalAlign=top;align=center;html=1;fontSize=12;fontStyle=0;aspect=fixed;shape=mxgraph.aws4.resourceIcon;resIcon=mxgraph.aws4.firetv;rounded=1;" parent="90j7tSNA-TrawRLlmLK4-6" vertex="1">
                    <mxGeometry x="251.5" y="105.5" width="60" height="60" as="geometry"/>
                </mxCell>
                <mxCell id="90j7tSNA-TrawRLlmLK4-10" value="" style="shape=image;html=1;verticalAlign=top;verticalLabelPosition=bottom;labelBackgroundColor=#ffffff;imageAspect=0;aspect=fixed;image=https://cdn3.iconfinder.com/data/icons/linecons-free-vector-icons-pack/32/bulb-128.png;rounded=1;" parent="90j7tSNA-TrawRLlmLK4-6" vertex="1">
                    <mxGeometry x="331.5" y="168.5" width="53" height="53" as="geometry"/>
                </mxCell>
                <mxCell id="90j7tSNA-TrawRLlmLK4-11" value="" style="image;html=1;image=img/lib/clip_art/networking/Wireless_Router_N_128x128.png;rounded=1;" parent="90j7tSNA-TrawRLlmLK4-6" vertex="1">
                    <mxGeometry x="156.5" y="212.5" width="80" height="80" as="geometry"/>
                </mxCell>
                <mxCell id="90j7tSNA-TrawRLlmLK4-12" value="" style="group;rounded=1;" parent="90j7tSNA-TrawRLlmLK4-6" vertex="1" connectable="0">
                    <mxGeometry width="402.5" height="322.5" as="geometry"/>
                </mxCell>
                <mxCell id="90j7tSNA-TrawRLlmLK4-13" value="" style="verticalLabelPosition=bottom;verticalAlign=top;html=1;shape=mxgraph.basic.rect;fillColor2=none;strokeWidth=4;size=20;indent=5;fillColor=none;rounded=1;" parent="90j7tSNA-TrawRLlmLK4-12" vertex="1">
                    <mxGeometry x="12.5" y="92.5" width="375" height="230" as="geometry"/>
                </mxCell>
                <mxCell id="90j7tSNA-TrawRLlmLK4-14" value="" style="triangle;whiteSpace=wrap;html=1;strokeWidth=4;fillColor=none;rotation=-90;rounded=1;" parent="90j7tSNA-TrawRLlmLK4-12" vertex="1">
                    <mxGeometry x="155" y="-155" width="92.5" height="402.5" as="geometry"/>
                </mxCell>
                <mxCell id="90j7tSNA-TrawRLlmLK4-15" style="edgeStyle=orthogonalEdgeStyle;orthogonalLoop=1;jettySize=auto;html=1;exitX=0.5;exitY=1;exitDx=0;exitDy=0;strokeWidth=3;entryX=0.5;entryY=0;entryDx=0;entryDy=0;" parent="CgCXLuuTw9D1Alfjapi0-1" source="90j7tSNA-TrawRLlmLK4-16" target="90j7tSNA-TrawRLlmLK4-2" edge="1">
                    <mxGeometry relative="1" as="geometry">
                        <mxPoint x="1197" y="957.5" as="targetPoint"/>
                    </mxGeometry>
                </mxCell>
                <mxCell id="90j7tSNA-TrawRLlmLK4-16" value="Network scan&lt;br&gt;module" style="html=1;strokeWidth=4;fillColor=none;rounded=1;" parent="CgCXLuuTw9D1Alfjapi0-1" vertex="1">
                    <mxGeometry x="1137" y="894.5" width="110" height="50" as="geometry"/>
                </mxCell>
                <mxCell id="90j7tSNA-TrawRLlmLK4-17" style="edgeStyle=orthogonalEdgeStyle;rounded=0;orthogonalLoop=1;jettySize=auto;html=1;exitX=1;exitY=0.5;exitDx=0;exitDy=0;entryX=0;entryY=0.5;entryDx=0;entryDy=0;startArrow=none;startFill=0;strokeWidth=3;" parent="CgCXLuuTw9D1Alfjapi0-1" source="90j7tSNA-TrawRLlmLK4-18" target="90j7tSNA-TrawRLlmLK4-20" edge="1">
                    <mxGeometry relative="1" as="geometry"/>
                </mxCell>
                <mxCell id="90j7tSNA-TrawRLlmLK4-18" value="Communication module" style="html=1;strokeWidth=3;fillColor=none;rounded=1;" parent="CgCXLuuTw9D1Alfjapi0-1" vertex="1">
                    <mxGeometry x="1122" y="1169.5" width="140" height="60" as="geometry"/>
                </mxCell>
                <mxCell id="90j7tSNA-TrawRLlmLK4-19" style="edgeStyle=orthogonalEdgeStyle;rounded=0;orthogonalLoop=1;jettySize=auto;html=1;exitX=1;exitY=0.5;exitDx=0;exitDy=0;startArrow=none;startFill=0;strokeWidth=3;" parent="CgCXLuuTw9D1Alfjapi0-1" source="90j7tSNA-TrawRLlmLK4-20" target="90j7tSNA-TrawRLlmLK4-4" edge="1">
                    <mxGeometry relative="1" as="geometry"/>
                </mxCell>
                <mxCell id="90j7tSNA-TrawRLlmLK4-20" value="Accessibility module" style="html=1;strokeWidth=3;fillColor=none;rounded=1;" parent="CgCXLuuTw9D1Alfjapi0-1" vertex="1">
                    <mxGeometry x="1337" y="1169.5" width="140" height="60" as="geometry"/>
                </mxCell>
                <mxCell id="90j7tSNA-TrawRLlmLK4-21" style="edgeStyle=orthogonalEdgeStyle;rounded=0;orthogonalLoop=1;jettySize=auto;html=1;startArrow=none;startFill=0;strokeWidth=3;" parent="CgCXLuuTw9D1Alfjapi0-1" source="90j7tSNA-TrawRLlmLK4-22" target="90j7tSNA-TrawRLlmLK4-20" edge="1">
                    <mxGeometry relative="1" as="geometry"/>
                </mxCell>
                <mxCell id="90j7tSNA-TrawRLlmLK4-22" value="" style="pointerEvents=1;shadow=0;dashed=0;html=1;strokeColor=none;fillColor=#505050;labelPosition=center;verticalLabelPosition=bottom;verticalAlign=top;outlineConnect=0;align=center;shape=mxgraph.office.concepts.settings;" parent="CgCXLuuTw9D1Alfjapi0-1" vertex="1">
                    <mxGeometry x="1383" y="1058" width="48" height="48" as="geometry"/>
                </mxCell>
                <mxCell id="90j7tSNA-TrawRLlmLK4-23" value="" style="verticalLabelPosition=bottom;html=1;verticalAlign=top;strokeWidth=1;align=center;outlineConnect=0;dashed=0;outlineConnect=0;shape=mxgraph.aws3d.application;fillColor=#4286c5;strokeColor=#57A2D8;aspect=fixed;" parent="CgCXLuuTw9D1Alfjapi0-1" vertex="1">
                    <mxGeometry x="1527" y="857.5" width="62" height="68.8" as="geometry"/>
                </mxCell>
                <mxCell id="90j7tSNA-TrawRLlmLK4-24" style="edgeStyle=orthogonalEdgeStyle;rounded=0;orthogonalLoop=1;jettySize=auto;html=1;strokeWidth=3;" parent="CgCXLuuTw9D1Alfjapi0-1" source="90j7tSNA-TrawRLlmLK4-13" target="90j7tSNA-TrawRLlmLK4-16" edge="1">
                    <mxGeometry relative="1" as="geometry"/>
                </mxCell>
                <mxCell id="IzrgUFSOJlf2vFMgEedg-0" value="Backend" style="points=[[0,0],[0.25,0],[0.5,0],[0.75,0],[1,0],[1,0.25],[1,0.5],[1,0.75],[1,1],[0.75,1],[0.5,1],[0.25,1],[0,1],[0,0.75],[0,0.5],[0,0.25]];outlineConnect=0;gradientColor=none;html=1;whiteSpace=wrap;fontSize=12;fontStyle=0;shape=mxgraph.aws4.group;grIcon=mxgraph.aws4.group_on_premise;strokeColor=#5A6C86;fillColor=none;verticalAlign=top;align=left;spacingLeft=30;fontColor=#5A6C86;dashed=0;" parent="CgCXLuuTw9D1Alfjapi0-1" vertex="1">
                    <mxGeometry x="830" y="1407.5" width="724" height="830" as="geometry"/>
                </mxCell>
                <mxCell id="cI2-4JszlEY8MObddP7s-2" style="edgeStyle=orthogonalEdgeStyle;rounded=0;orthogonalLoop=1;jettySize=auto;html=1;entryX=0.5;entryY=0;entryDx=0;entryDy=0;startArrow=none;startFill=0;endArrow=classic;endFill=1;strokeWidth=3;" parent="CgCXLuuTw9D1Alfjapi0-1" source="xgWrqKKYvx_ry_OhBdgz-0" target="cI2-4JszlEY8MObddP7s-1" edge="1">
                    <mxGeometry relative="1" as="geometry"/>
                </mxCell>
                <mxCell id="EcqFgPdZkttD0W40GE-H-1" style="edgeStyle=orthogonalEdgeStyle;rounded=0;orthogonalLoop=1;jettySize=auto;html=1;entryX=0.75;entryY=1;entryDx=0;entryDy=0;startArrow=none;startFill=0;endArrow=classic;endFill=1;strokeWidth=3;exitX=0.75;exitY=0;exitDx=0;exitDy=0;" parent="CgCXLuuTw9D1Alfjapi0-1" source="xgWrqKKYvx_ry_OhBdgz-0" target="90j7tSNA-TrawRLlmLK4-18" edge="1">
                    <mxGeometry relative="1" as="geometry"/>
                </mxCell>
                <mxCell id="xgWrqKKYvx_ry_OhBdgz-0" value="Communication module" style="html=1;strokeWidth=3;fillColor=none;rounded=1;" parent="CgCXLuuTw9D1Alfjapi0-1" vertex="1">
                    <mxGeometry x="1122" y="1437.5" width="140" height="60" as="geometry"/>
                </mxCell>
                <mxCell id="xgWrqKKYvx_ry_OhBdgz-1" value="" style="endArrow=classic;html=1;strokeWidth=3;entryX=0.25;entryY=0;entryDx=0;entryDy=0;exitX=0.25;exitY=1;exitDx=0;exitDy=0;" parent="CgCXLuuTw9D1Alfjapi0-1" source="90j7tSNA-TrawRLlmLK4-18" target="xgWrqKKYvx_ry_OhBdgz-0" edge="1">
                    <mxGeometry width="50" height="50" relative="1" as="geometry">
                        <mxPoint x="1347" y="1397.5" as="sourcePoint"/>
                        <mxPoint x="1357" y="1377.5" as="targetPoint"/>
                        <Array as="points"/>
                    </mxGeometry>
                </mxCell>
                <mxCell id="vhKSeT0OAqHSq_wS80SV-2" style="edgeStyle=orthogonalEdgeStyle;rounded=0;orthogonalLoop=1;jettySize=auto;html=1;entryX=0.5;entryY=0;entryDx=0;entryDy=0;startArrow=none;startFill=0;endArrow=classic;endFill=1;strokeWidth=3;" parent="CgCXLuuTw9D1Alfjapi0-1" source="cI2-4JszlEY8MObddP7s-1" target="vhKSeT0OAqHSq_wS80SV-0" edge="1">
                    <mxGeometry relative="1" as="geometry"/>
                </mxCell>
                <mxCell id="vhKSeT0OAqHSq_wS80SV-3" style="edgeStyle=orthogonalEdgeStyle;rounded=0;orthogonalLoop=1;jettySize=auto;html=1;startArrow=none;startFill=0;endArrow=classic;endFill=1;strokeWidth=3;" parent="CgCXLuuTw9D1Alfjapi0-1" source="cI2-4JszlEY8MObddP7s-1" target="vhKSeT0OAqHSq_wS80SV-1" edge="1">
                    <mxGeometry relative="1" as="geometry"/>
                </mxCell>
                <mxCell id="Oj2I07chthjA6uXQBvvf-0" style="edgeStyle=orthogonalEdgeStyle;rounded=0;orthogonalLoop=1;jettySize=auto;html=1;startArrow=none;startFill=0;endArrow=classic;endFill=1;strokeWidth=3;" parent="CgCXLuuTw9D1Alfjapi0-1" source="cI2-4JszlEY8MObddP7s-1" edge="1">
                    <mxGeometry relative="1" as="geometry">
                        <mxPoint x="1192" y="2267.5" as="targetPoint"/>
                    </mxGeometry>
                </mxCell>
                <mxCell id="cI2-4JszlEY8MObddP7s-1" value="Device and Vendor&amp;nbsp;&lt;br&gt;Lookup Module" style="html=1;strokeWidth=3;fillColor=none;rounded=1;" parent="CgCXLuuTw9D1Alfjapi0-1" vertex="1">
                    <mxGeometry x="1122" y="1547.5" width="140" height="60" as="geometry"/>
                </mxCell>
                <mxCell id="cI2-4JszlEY8MObddP7s-4" style="edgeStyle=orthogonalEdgeStyle;rounded=0;orthogonalLoop=1;jettySize=auto;html=1;entryX=0;entryY=0.5;entryDx=0;entryDy=0;startArrow=none;startFill=0;endArrow=classic;endFill=1;strokeWidth=3;" parent="CgCXLuuTw9D1Alfjapi0-1" source="cI2-4JszlEY8MObddP7s-3" target="cI2-4JszlEY8MObddP7s-1" edge="1">
                    <mxGeometry relative="1" as="geometry"/>
                </mxCell>
                <mxCell id="cI2-4JszlEY8MObddP7s-3" value="Device and Vendor" style="shape=datastore;whiteSpace=wrap;html=1;strokeWidth=3;rounded=1;" parent="CgCXLuuTw9D1Alfjapi0-1" vertex="1">
                    <mxGeometry x="942" y="1537.5" width="85" height="80" as="geometry"/>
                </mxCell>
                <mxCell id="dnpW0dxu9Pinoj9uYYl2-2" style="edgeStyle=orthogonalEdgeStyle;rounded=0;orthogonalLoop=1;jettySize=auto;html=1;exitX=0;exitY=0.5;exitDx=0;exitDy=0;entryX=1;entryY=0.5;entryDx=0;entryDy=0;startArrow=none;startFill=0;endArrow=classic;endFill=1;strokeWidth=3;" parent="CgCXLuuTw9D1Alfjapi0-1" source="vhKSeT0OAqHSq_wS80SV-0" target="dnpW0dxu9Pinoj9uYYl2-0" edge="1">
                    <mxGeometry relative="1" as="geometry"/>
                </mxCell>
                <mxCell id="vhKSeT0OAqHSq_wS80SV-0" value="Vulnerability Processing&lt;br&gt;Module" style="html=1;strokeWidth=3;fillColor=none;rounded=1;" parent="CgCXLuuTw9D1Alfjapi0-1" vertex="1">
                    <mxGeometry x="1009.5" y="1717.5" width="140" height="60" as="geometry"/>
                </mxCell>
                <mxCell id="dnpW0dxu9Pinoj9uYYl2-3" style="edgeStyle=orthogonalEdgeStyle;rounded=0;orthogonalLoop=1;jettySize=auto;html=1;entryX=0;entryY=0.5;entryDx=0;entryDy=0;startArrow=none;startFill=0;endArrow=classic;endFill=1;strokeWidth=3;" parent="CgCXLuuTw9D1Alfjapi0-1" source="vhKSeT0OAqHSq_wS80SV-1" target="1kC9jQKRN2gmtBNmHOeP-0" edge="1">
                    <mxGeometry relative="1" as="geometry"/>
                </mxCell>
                <mxCell id="vhKSeT0OAqHSq_wS80SV-1" value="Topic Modeling&amp;nbsp;&lt;br&gt;Module" style="html=1;strokeWidth=3;fillColor=none;rounded=1;" parent="CgCXLuuTw9D1Alfjapi0-1" vertex="1">
                    <mxGeometry x="1234.5" y="1717.5" width="140" height="60" as="geometry"/>
                </mxCell>
                <mxCell id="dnpW0dxu9Pinoj9uYYl2-6" style="edgeStyle=orthogonalEdgeStyle;rounded=0;orthogonalLoop=1;jettySize=auto;html=1;entryX=1;entryY=0.5;entryDx=0;entryDy=0;startArrow=none;startFill=0;endArrow=classic;endFill=1;strokeWidth=3;" parent="CgCXLuuTw9D1Alfjapi0-1" source="1kC9jQKRN2gmtBNmHOeP-0" target="xgWrqKKYvx_ry_OhBdgz-0" edge="1">
                    <mxGeometry relative="1" as="geometry">
                        <Array as="points">
                            <mxPoint x="1484" y="1467.5"/>
                        </Array>
                    </mxGeometry>
                </mxCell>
                <mxCell id="1kC9jQKRN2gmtBNmHOeP-0" value="Topics and Scores" style="shape=datastore;whiteSpace=wrap;html=1;strokeWidth=3;rounded=1;" parent="CgCXLuuTw9D1Alfjapi0-1" vertex="1">
                    <mxGeometry x="1442" y="1707.5" width="85" height="80" as="geometry"/>
                </mxCell>
                <mxCell id="dnpW0dxu9Pinoj9uYYl2-5" style="edgeStyle=orthogonalEdgeStyle;rounded=0;orthogonalLoop=1;jettySize=auto;html=1;entryX=0;entryY=0.5;entryDx=0;entryDy=0;startArrow=none;startFill=0;endArrow=classic;endFill=1;strokeWidth=3;" parent="CgCXLuuTw9D1Alfjapi0-1" source="dnpW0dxu9Pinoj9uYYl2-0" target="xgWrqKKYvx_ry_OhBdgz-0" edge="1">
                    <mxGeometry relative="1" as="geometry">
                        <Array as="points">
                            <mxPoint x="899" y="1467.5"/>
                        </Array>
                    </mxGeometry>
                </mxCell>
                <mxCell id="dnpW0dxu9Pinoj9uYYl2-0" value="Vulnerabilites" style="shape=datastore;whiteSpace=wrap;html=1;strokeWidth=3;rounded=1;" parent="CgCXLuuTw9D1Alfjapi0-1" vertex="1">
                    <mxGeometry x="857" y="1707.5" width="85" height="80" as="geometry"/>
                </mxCell>
                <mxCell id="fVWPAGjO0K7abTBwwMHG-0" value="" style="group" parent="CgCXLuuTw9D1Alfjapi0-1" vertex="1" connectable="0">
                    <mxGeometry x="1137" y="2257.5" width="212.70000000000005" height="130" as="geometry"/>
                </mxCell>
                <mxCell id="fVWPAGjO0K7abTBwwMHG-1" value="" style="points=[];aspect=fixed;html=1;align=center;shadow=0;dashed=0;image;image=img/lib/allied_telesis/computer_and_terminals/Personal_Computer_with_Server.svg;" parent="fVWPAGjO0K7abTBwwMHG-0" vertex="1">
                    <mxGeometry x="120.00000000000001" width="95.4" height="95.4" as="geometry"/>
                </mxCell>
                <mxCell id="fVWPAGjO0K7abTBwwMHG-2" value="" style="shadow=0;dashed=0;html=1;strokeColor=none;fillColor=#4495D1;labelPosition=center;verticalLabelPosition=bottom;verticalAlign=top;align=center;outlineConnect=0;shape=mxgraph.veeam.portal_admin;" parent="fVWPAGjO0K7abTBwwMHG-0" vertex="1">
                    <mxGeometry y="24" width="120" height="106" as="geometry"/>
                </mxCell>
                <mxCell id="Z7xB0FvDfjIrWFE5RnoA-0" style="edgeStyle=orthogonalEdgeStyle;rounded=0;orthogonalLoop=1;jettySize=auto;html=1;entryX=0.5;entryY=1;entryDx=0;entryDy=0;startArrow=none;startFill=0;endArrow=classic;endFill=1;strokeWidth=3;" parent="CgCXLuuTw9D1Alfjapi0-1" source="ZcQ9a0NMKfhcTaR9caxL-0" target="vhKSeT0OAqHSq_wS80SV-1" edge="1">
                    <mxGeometry relative="1" as="geometry"/>
                </mxCell>
                <mxCell id="ZcQ9a0NMKfhcTaR9caxL-0" value="TOS, EULA,&lt;br&gt;and Privacy Policy" style="shape=datastore;whiteSpace=wrap;html=1;strokeWidth=3;rounded=1;" parent="CgCXLuuTw9D1Alfjapi0-1" vertex="1">
                    <mxGeometry x="1262" y="1837.5" width="85" height="80" as="geometry"/>
                </mxCell>
                <mxCell id="tkC0pKLUB5LxngkQZ1QE-5" style="edgeStyle=orthogonalEdgeStyle;rounded=0;orthogonalLoop=1;jettySize=auto;html=1;startArrow=none;startFill=0;endArrow=classic;endFill=1;strokeWidth=3;" parent="CgCXLuuTw9D1Alfjapi0-1" source="tkC0pKLUB5LxngkQZ1QE-0" target="ZcQ9a0NMKfhcTaR9caxL-0" edge="1">
                    <mxGeometry relative="1" as="geometry"/>
                </mxCell>
                <mxCell id="3uin5VnQ3zqhtKhshG0Y-42" style="edgeStyle=orthogonalEdgeStyle;rounded=0;orthogonalLoop=1;jettySize=auto;html=1;exitX=1;exitY=0.75;exitDx=0;exitDy=0;strokeWidth=3;" parent="CgCXLuuTw9D1Alfjapi0-1" source="tkC0pKLUB5LxngkQZ1QE-0" edge="1">
                    <mxGeometry relative="1" as="geometry">
                        <mxPoint x="1817" y="2022.5" as="targetPoint"/>
                    </mxGeometry>
                </mxCell>
                <mxCell id="tkC0pKLUB5LxngkQZ1QE-0" value="PP/ToS Processing&lt;br&gt;Module" style="html=1;strokeWidth=3;fillColor=none;rounded=1;" parent="CgCXLuuTw9D1Alfjapi0-1" vertex="1">
                    <mxGeometry x="1234.5" y="1977.5" width="140" height="60" as="geometry"/>
                </mxCell>
                <mxCell id="tkC0pKLUB5LxngkQZ1QE-4" style="edgeStyle=orthogonalEdgeStyle;rounded=0;orthogonalLoop=1;jettySize=auto;html=1;entryX=0.5;entryY=1;entryDx=0;entryDy=0;startArrow=none;startFill=0;endArrow=classic;endFill=1;strokeWidth=3;" parent="CgCXLuuTw9D1Alfjapi0-1" source="tkC0pKLUB5LxngkQZ1QE-1" target="tkC0pKLUB5LxngkQZ1QE-0" edge="1">
                    <mxGeometry relative="1" as="geometry"/>
                </mxCell>
                <mxCell id="tkC0pKLUB5LxngkQZ1QE-1" value="TOS Location" style="shape=datastore;whiteSpace=wrap;html=1;strokeWidth=3;rounded=1;" parent="CgCXLuuTw9D1Alfjapi0-1" vertex="1">
                    <mxGeometry x="1262" y="2107.5" width="85" height="80" as="geometry"/>
                </mxCell>
                <mxCell id="EcqFgPdZkttD0W40GE-H-0" style="edgeStyle=orthogonalEdgeStyle;rounded=0;orthogonalLoop=1;jettySize=auto;html=1;startArrow=none;startFill=0;endArrow=classic;endFill=1;strokeWidth=3;" parent="CgCXLuuTw9D1Alfjapi0-1" source="fVWPAGjO0K7abTBwwMHG-1" target="tkC0pKLUB5LxngkQZ1QE-1" edge="1">
                    <mxGeometry relative="1" as="geometry"/>
                </mxCell>
                <mxCell id="3uin5VnQ3zqhtKhshG0Y-29" value="" style="group" parent="CgCXLuuTw9D1Alfjapi0-1" vertex="1" connectable="0">
                    <mxGeometry x="1577" y="1972.5" width="70" height="50" as="geometry"/>
                </mxCell>
                <mxCell id="3uin5VnQ3zqhtKhshG0Y-30" value="" style="shape=document;whiteSpace=wrap;html=1;boundedLbl=1;rounded=1;strokeWidth=3;fillColor=none;" parent="3uin5VnQ3zqhtKhshG0Y-29" vertex="1">
                    <mxGeometry width="59.99999999999999" height="40" as="geometry"/>
                </mxCell>
                <mxCell id="3uin5VnQ3zqhtKhshG0Y-31" value="" style="shape=document;whiteSpace=wrap;html=1;boundedLbl=1;rounded=1;strokeWidth=3;" parent="3uin5VnQ3zqhtKhshG0Y-29" vertex="1">
                    <mxGeometry x="4.999999999999999" y="5" width="59.99999999999999" height="40" as="geometry"/>
                </mxCell>
                <mxCell id="3uin5VnQ3zqhtKhshG0Y-32" value="" style="shape=document;whiteSpace=wrap;html=1;boundedLbl=1;rounded=1;strokeWidth=3;" parent="3uin5VnQ3zqhtKhshG0Y-29" vertex="1">
                    <mxGeometry x="11" y="10" width="60" height="40" as="geometry"/>
                </mxCell>
                <mxCell id="3uin5VnQ3zqhtKhshG0Y-33" value="" style="group" parent="CgCXLuuTw9D1Alfjapi0-1" vertex="1" connectable="0">
                    <mxGeometry x="1790" y="1928.5" width="460" height="150" as="geometry"/>
                </mxCell>
                <mxCell id="3uin5VnQ3zqhtKhshG0Y-34" value="" style="ellipse;shape=cloud;whiteSpace=wrap;html=1;opacity=50;" parent="3uin5VnQ3zqhtKhshG0Y-33" vertex="1">
                    <mxGeometry width="460.00000000000006" height="150" as="geometry"/>
                </mxCell>
                <mxCell id="3uin5VnQ3zqhtKhshG0Y-35" value="" style="shape=image;imageAspect=0;aspect=fixed;verticalLabelPosition=bottom;verticalAlign=top;rounded=1;strokeWidth=3;fillColor=none;image=data:image/png,iVBORw0KGgoAAAANSUhEUgAAAZUAAAB8CAMAAACWud33AAAA/1BMVEX///8pKSn3mzQAAAAfHx8YGBgUFBQJCQkoKiklJSXh4eH6+vocHByrq6udnZ0iIiLQ0NAxMTFzc3PZ2dlnZ2dsbGwREREICAjAwMDMzMzs7OyMjIzz8/OxsbFERESioqJ9fX1fX1/Dw8P3lR09PT1NTU1WVlaSkpL5mzE6OjpMTEz///n2mir0nDf759KVlZX99en7yqL3mjvznjT7sG7zrmPyzaD217H7lh7+8dz33cH20Kb3tXDzpEn3uX341rb0sVr31J787OTxlRXtq0L+kiv0ni73qVv3oUbvoi33yZb348Xxw4vyqVjxvXXxpkj3zKv579H8lDjuxHj3tXpotbRMAAAVmklEQVR4nO1dC1viyBIFEhICkahggrwxiFGCMnBRVNTZ4eq4vmbv3Pv/f8tNwitdVXnIQ9Tx7Hzf7g4hXd2nu6q6qrqJRL7wgZDczZU2LJRymfy6ZfFAypJxw5FxL1lctzArR2Zje4vjRFVwoGqcUEtvzvuyZKnaOFSi9WwhR7Nb3EvvlLf4w0a1lHyFjJUdxZJxJKIgcpycrWTmlfGVSG1uFLKWyNF6rVrZXWDOWmNTq0vKYS2w65vVKCfwUpSBEteUqh8xpbQLGzP5K3VOkBXrbZIiq2INv2J3RxDjvCTZDwjc4UmoPu5t81ycZ0WM8gIXLfgRs7cdGlXvQUqVsoJm98npFB8XxaMT3yHNu4cmvTv7gBkbrl5Jeb6itMXJURo8V895fa3BxV3Q9idvEwSGXoVrsKO+WdaYwZXiXNVbuPGwVCQRMjL5uszt73p9b5PjQ0OOe0iRrHKqAluN+7QayYuCe2y4yZTNySozNpIgVug3lKIqWCRs89wRPRfzHPsg50yeVJZDr+AFt/xVTkokwBNxxbuHNiqy4COiRXzNY7kdxFFb3uBIxZAqeMxZhdv3WqUbKvtkY/TX23hsouI+YR3zDc2Pk1HraarlJMVK8ZDqgcRNF1yxTI6vRLcxQqauUt9xg+dK5FcLXkqAgkixssfHPb+gcFUPVthOjllpkF3nFaQLc6qHXmDF3QnJSqrs8TpuvBaKh17tcSdepGxwUH2Q3y+shJUC5zdpE/E6uUhJVrIe9EoyeEeFWFIUhGw4VrKegyCMWvZizf4+PdutcQkno1ZdASs1/1WaSEgqtcAoVk48X6WUmS+nQ3Y4GlVxlwlWSt7v453pUvUzDxw57apiWBk5wnAuyEojHmiVJI4wiQQrGZ+xFtzrPBeaFKvLe8GspPyGwF4Km74NKjWClPATx2oCG9/FWGmE8hUIJ4FgpeynCV0TEg6rL6StQFbyB9520UaAZGT3/HkEUPbR9xdipSqEcuAkAS1yzErJd8nL1elXj8IY0QkS6gZoGbIiZvzfp5Z2Nf82+G00qtEgB5EBXtCLsOKjj1kAu0CysuXfEXXiHtPsSTyvUC9ISIcBrPBV/xGQ6rWgaaDB3h2QdkixZCS/j3Xgq1hh12o+tEFj7QLFSm1P9V916mTrQHRM1vj9ne0atdVPJKDWRgowyMeWAuc9VCFFNDCJhMxFGzvbjSi5tUMOw+vWCrOfq+H+KILGcWIc9wOODWKlEdD3iZooIUdN0SZRr2RBxG+Jg33eq8xSOMAmkKFK8MIk6pWpEjsJFXrXobWQ3Toz47ErJGmNUiaf3KyU0WSRgA4DrARPSCk6+iKyKvF910RLHqKlNAkbrJAVaFiQVVGzrumcwX11Wc0xqjIV8qIal2QmDIYMgTSLCuEZrbHTAbLieosHP6NVjsY0zm4Ui9jOSsGsJOyoXVziNUGKevovsshZ/1CqBRC/Cb0DldXfSTQ40hFkJRJJEcgT6pt1FbDVlVyTNgNaTgAX1YMVXuPLZYnUvSPlDb+nwP7sIbE0NoxGsiJvVZLWlMuX6l6uviwXNovF/G5BxiMD+gaNAg8jDBXUeQGzQqGB245XmScO4aRkTQckLSEyoXWaFS3rDH2ySviigrPYsmAV4x0YWsIcG0WjWBFmKshy9inJxJ0Jt8UGnjM80wLc3ojQlqdQ57mglICDCnavgIu5CzsnAzcLyJZgLQvJijYljtgijEwqsKPEvhq5LyIbWiBYkd1RTMKHsd7hjkHiTSWT4UiBBrDRiOzANrgwmU0sOfIw0YtFEG/PQe3JvIBixR2ZwfqRdzoH9IeAQ4OoXZXdoxGsMINK+fsyY87xxh2wwrIm4oBTBTppWpiEcZ1w3ljvrwj7jja46AlmMRGsCEwLSIWOtPOuwmlqXJ5khYk5tglHVWWzkpgVtuHINl4sMjvj0GIRmM9LKie6ZcTaCc2cMKwU8JBB/zJoRlrAW2LXh5gVYDL3YANjCVLJzVylsHOkqBY9VPYGjTrYDGBWgN5HXUPK+QAqyTjLml3Pki5ky7IjI5GAQZ0jE1cskMmwuwYsFppQUIFFImm/ZYpZEUDACgoBvcdUPpNDMyFCjLoQwAp8cRHTBsYM+f1emfNUfjNH5ZB34XoOZiWlSMgNQakdlKVHkS7ctHsLjFnhAK1QhREtkHg1K3AlRKBkUQ0MOlKSXqx4YQ5WdmTkssvQaOCuVdF78tCPcmtBxArypqAvhWPyNJKw2SBWULjjCJoN2HIGNrF6VsgQDGy1BAcV6h8byGqKs9cgVuIwI4diMvOyEmRX0IhkwSpFEya56FpBiy2IlTyRpsVpHRT9FgkVvw/VnMuwIFaQFwKNbhhWipYrcAJFC/LBkB8HbSbSA4gVPhIeeUtGvKcKYAUNJRGG9x9wz965dQliBW2AYejEj5X8ZildrR3KqiiqaOcdyAr0U8CUSyDDMxcrlown27VDgZQxgJU0Xio4ZRWJoP2MRpQUoBnh6h5iRYbfhqvcgxW7NFjgNCFOZ72iwawg7xGxAn3b17KSKVWPVE30kdGfFaqiQcM7New8qkQlHRp5V5gOWQ2YMgzDSjG3o2gqES5kRQtgBRkFyApMn7yKlXwpG9cEOSBR4c8KCjlapBB2HDkhUZmwd8glcDm3iJUG/HYgK7tZLlStXhArSHRoNJEnE56VXIMTQtUT+rFSRUm0BE/V1SDPDiugCLVJVqafoYg8qqcLYCVX18J0NzoPK+DFc7OyERVDVn74sbKHg5ISTx2BweNNyYXiCq6QEGQF5SD8WUnu+1ZsMng1KzDwOicrm4e+5ekMfFgpwpMgFiu4KIYa0ygT4/IaV3fVwGKspEOV8I6xfFYyYVih8vOe8GEFZpSiKNM1AYpEh2Vl6jgsxEo2fHFNdE2spPZ9z0hAeLNCbOqxZzQCCjyGZGW2q1mElX2vInFejgvCq/crq2CluOV1loiW0ZMVeNrGBlEB6yAcKzhmvhRWGhQpirVnKWer6coGkm0NrKTIgxW8wKlHO4V0pYRSAZ6sEIWiqteRGcyKQjy1Glao+niZq21kvFpdAytEaj8aV7PTY56h42AHeFPPoz2E15jSnjGhwRa3K0RBPq8euEvC1s9KGts9WU67nNmwMWNqU49CU1Osj5UU9hNV9nDh+lkhbIG2zTQSlhWi9przPIVL7EQEYluzCs+4gHSnBmKH62cFFZqgg0MhWUGbelCOEzBiOINsA3M3K16fkxUcgEO++9pZweYU2edwrBDKWkKZLt+GqWNoKALg2nLMyQqqOsS++9pZQbknWIkSspqiSByjow9xT77g413NgKKTLvHmZAXV/IhIzaLI6VuzgvwvPDZovlKs1HjECpHpcgOZIVx4REQAXEm9+VjBdhR75Eg7vDErqPabKO1GRTIEKxtiFLJCZbrcQDV0RBEjXsrCzOjNxwqaY6OCSga4Uu1tWTmBcxGlZ4j5ilmhyqGJTBcDvzTjFLAqwV3bOR8rqFmiiGPde3tUnEioEVz2gFipE5l6j5P9U6AJifMjVHX8zH2ej5WsAhY1UcOL/NLAerDlshJ0JsAGNo+QFaJ8NSrVGo3aTvWkksvQN4whBS/hQBhyCdx1dvOxUoaVaoSTgTYLQIOsmJUU3g4g9xSfm4Q1afTJcElRFDu6qWrc1g51wxg+vYLaRpsa+WD24XysJIJZQcYW1qWvmBXsnuKRwUnDOFuwkQo8GS7xAqdsQ92INDyqQMQ10pprmc7HChIO62x8ThtsaVbMCnYTsQbDR7ZAISCxqafAi/EC83J07EdBoQCkPN1e7JJYQf4NKqONwnzEm7Oiwi0VpZ6YmCOVVPGAzGXdvOAgIegcinf6nl+ZkxVUbEocPgG1j2+uwVDpJVEI6d40UOcmfcBzLg2NnVQQgUPj43vWKxwrdVSXDpQ2ffEOY29Xbe2JTAPbAHG6ETyEw5u+EGZTEx8DkZjG4ecJ9g6Z+VipoTMcYB3QNzAxL1+1Z4ybZ8+SeVy8477LIOA2HwTXfEcmix2gMvg4oTGGeT5Wqjg05M43ZGR88mb0kMsVWTUrxOlrd0wRnzzHDxG1kr5wCYhPhHEu6WtQwYFDQfOxQp1xndV2pon7QiYP+VxktWRWCjKeGcJk6qS8b9hz6ZpXksIYD2y0pgmo5BHyT8HVbfOxgitpLajljWQ+uXmi+NhIpf5mrOSoa4K0/ZIl424BV+O7XjI1D97P0HCzQiSVZbmQ292rNHARHSyMnTOST+6uJEETRdHfxZ8lnlbNSpGjtKgiaKpKXjcyw1QZ+z5FgHG0qL2OrIqqQN02Aja4c7KCE8QhMUvtrDy/QhQ7hkAikZga5td+l2ElFXxz1gTotOucrIS7sIiYFbPs/spZoY5gI0hIxkRiapdDfJ8VsPLq9m3E0R2A81ZTbIe4zkzBs9V1MH/11RTULhFAOoQBf4uUaSyMeN4puVQFIS4TJ5PAVjEdcCPjRGicQ5uXlbwYdNOlZLmYMJrurjFZPSt+l82OoCj5IjzA43Lx2WfjIifYJZcbG6XSRuWgWtviwDEluIGvqiGuA1W2cDpg7iq9EmlMXY3JSbhTk5it0htU6Z0EVKfLW3kYhlBkV+RjJrksCrU0+n2OVKZUrbt+mQCyEtkJvAo+yhOkLFLR6tti/NDpgrsSlFfeMjrpoObrlKgNp8Vt10PyoXvkJ3/JRQubnpVG+VKWGx+QQaxEqkHLNV6mEmcLVH9XNe/1ye2Me9GQR7kYy7MpB9zatoqafPrC/1E/pjfjz25jFBqMDI7/L4i+PyJjo1ja53j74Ca+Pbzif3rG4+cLFjkpceLVojxL8qTq/IgVoQYGfQ5WYKdDnF/xPFMkKFN1mp9U58Kr8rcFSY2mQ/3OVGabkxWqSiyz5T0xZNmjLHahU0Wbh1RsRea2XR0p1u2YWQJPCnzPC3wCJs4CL6qmqqxzEnX+Ls4VXHMgP7rfGN2KlMoeEkeEPZCvlukqi7RG61GZq3oRDm9l41HSDMZWmXORpTonSwkHow9lMQ5+SSl1JNA/j1Jjfqsojn9qY5NjfrFHwNW6DfCKA/iAjcoW53hKEzEVWZMO2FflD2VLxqDSlXlRPODZH0qyxFBUoer9w1dFWWU7hhdhWWSfYAc4c1AWOVG1oXFCubCHzWKV3yJXKvO7XmmivDDJPFAhehH4Cge7hTo3llHk4vsFXJCTyvLluX8bLgRyO7Lze1w2FFnQ1FrJ98qZYoXpGFF/ltrw+umvyQP2DxKWcrvv9tcII7YTuxIZm83Qj2ZKBzv75aPyfrawEeYexS984SOjeX58cXl5+e3bt8vLm+Pz8AvlC6tB8/ifwZVp6rr9x9Sd/zKvrm/O1y3YHwprRbRPv5umaRgxAMPQzd7xugX8M3H2a2jGujHEiY1OzOj/tW4BF0X7zJlZH0ghN791+86yiLUoVmLGXex+3TIuiHbnVh/8WLcUr0DzVDdJMtwwP9Ako/Bj2IoZw+v2uuUIi+OrfotUXG609A/THxrNf9927zr63cPHmF03w5hFSrfVseaSZdlNGzZJti5rTRVap/+xWWlG2r9ujU4sprfOPgAv7ZYtq2noet/SY/dXP3v/stC76ui67vLHPjorFi3NgW07W6Z+f/P+eenprfvey+nNzXm77Za2eX7Wm5mbVv/998QPjvTXujPNjP7Pm3XLEwifMNexeTdhxfjYrIxwao5Xv7Ve1i3LArgwO2Pf+GrdoiwFF7HR8m919L8vP+w8a5qd0ewyeusWZTk4v5/Ms5jeffiotnLihJkP65ZkSWj2Zj6MaVx/pH3lDN3JxPrIepjFw3BKi2EMe4/rlmcOTKy9/onCxo8tfTLZLGL0X6fvX5GdPz0/n07tYErvjDrQWqdMy0a71+/eTXmxds0v73rBNK0tim7q/d6ElvP+eEa9rFWupePUNKdhC2vaGeb7XTDnT13d2ph0Wnf6JJ1y0b9zXBb9bK2SLR/H9zoTHjd08+XCnovvxl12BGmffdfHVrD7e3gx/uB6tBnumu91Js2N5lOfDckaRr97/a40WfNicHdrGqPZY7TM+8mMufpcuxUGltF3s9Kx1IShXz29k6xr8/GppZuGrV5HC8MwRw5XM/JjLLd+uWYZV4Lmk250YiwMU796eFy3Gmte2JQwc6b/PPaCm5Gb/ljUdYu5IhxfDX/HIExTv7++WF+P2xfXrT5bP9Ey+65d/GDE1+0n88BmaJ4OYcKv1epYtn8Y+366ji1a+/Q55mRQpr6ILZ/+7JIlZZqOndHfia5dBay9y+9ujIIeu3qrJTNqxVokV3ofzpJOx9SZQOqFE/juxj5HvNgLF3/rFCm2V2bq+vPDxVv4n+2LhyvddoK7cIoYw2dWgIEdXzXu+xdvINYa0Tw19U7sDo5Gt2WrD4sZp07Rma3LXDmzzVH77OWn1YoxVlduGVqxfhdEIJuOxTFan3up2Ghf62aH1mPO4JjW7npwetFeHivNESvtx38GXb1Pl+FZ2ksfouqPG9OeQMbtu9parQg/BkPoJLtHxyLGMIZmt/dw9p8lUdN+fBjcm/rQ6HRxvepEeV230frsOQmiT7mDJHDc073rr5xgpv2xaVnjq8HDzfF0sF5NUrN9cfry3NV1Z9JbhBtEaWSndWfovXP8+rbe7Rgt4zPF8P1x3BsGVyva7NhuQN/4OXi6fAQlKH5I/Tg+e7juWQprXNvlh25f/056vpd926j0n5bY7/cOixe8qyRhdrt2pbze7xutX98H10/fbm6Oj88tNCdot9vn58ePFzffLC5+3t8Nh/qtXWwX63hpLBfx+oDejTTvnY+fP+m23gM/XizL7lFt7Yb9hLVmRnWMdmmjpZD6fd2pcTTH/7L/cnTmxJysQZuPru/rDaMb++3FiTVv9I4Ru/t8weIgtF/udErTvwlasd+dvvlfb6Px8vuu27n9bHmVMGifddAO+61YMYd/++Xf2mbnrjP8LJUtr4XlkDla523XjKUJPVXXCP8YZuz2+o0G4R2i/XClEwffVoaOnUMISlM3u7Gu/ie5XwBNa/P9eN0K9GCXBUNvhci3NYeG/u0dZbHXg/bZwN42dlelyjrOn5g+KRoIxMPgTwi0BKN5MWjpBspZLg2GOYw9rT35+QHRPn75NVyFLrMzBb++feLk1arx49SulLOt/+LsTDMErcHZH7cdXDaajw+/rMlt7eIWXCFOKKDVu/m69mMJcBIij3/9r2UHVuZdMfYSuXu+/lojS0f78fR/P2OjU72T87y+LLWcmJkdFOs+P11+LZHVof2fs9Pr55apj1ZO647kxTC71lbktj+8uxo8nT1+EfImaLbbxzffnga9q5be7/d1Btb/d399v364PDteYm75C69D086nTHD+o+17keAXvrBi/B+kuSkhT8XyuQAAAABJRU5ErkJggg==;" parent="3uin5VnQ3zqhtKhshG0Y-33" vertex="1">
                    <mxGeometry x="120.22727272727273" y="38.759999999999884" width="47.40625000000001" height="14.514000000000003" as="geometry"/>
                </mxCell>
                <mxCell id="3uin5VnQ3zqhtKhshG0Y-36" value="" style="shape=image;imageAspect=0;aspect=fixed;verticalLabelPosition=bottom;verticalAlign=top;rounded=1;strokeWidth=3;fillColor=none;image=data:image/png,iVBORw0KGgoAAAANSUhEUgAAAUAAAABwCAMAAABYQ1mBAAAA0lBMVEX///9ChfTqQzX7vAU0qFPt9P7V5P2ZvfnE2fz+/v/2+f6IsvfoRDaXu/n2r6lKjPXwd23g6/2Otviiw/qArfj+9/anxvpBhvLl7v2syfpVkfPrST6zzvtglvZuoffyjob4vbhjm/btXlL5yMR2pvb84uDvbGHpT0L61tP81WL//ffyiH/L3vxNjvX96+r95qD94pP1p6H5zcn+6a3+7Ln+9t/98fD8yTf94pT92nTsZlz6wx7+8MfzlY3xf3T/+uv7z07+9NX93oT7zkj8xjD93H1MbWfLAAAMfUlEQVR4nO1daUMiORAdmeVoRG4E5LBBkFEQxWt0HLz3//+lhW6afpVU0mltZhbhfRM6ULykKnUlfvu2xRb/e1jxWiFRKMTTf1uQNUQtley1djzkOuXSaEujKaxR8WBHRrVdKvxt0dYBhWKOYW+BTnO7DvVItdXsudpciv9tGT+Nf3xE/MmjTgB9DoX7674KV0VgrWdA3xytUaTf+8exGgKtusb2iSiu9SJcCYG1IOMnLMJ13pBXQeAoxPJzUE1F9t1/HCsgsFkNyd8M9ai+/I8jegKTCj3t7RaTe8Vy+4x9uxnRt/9xRE7gHsNObz8BG0U8tdcSn2iv7UYSNYHy+mvVGW85Uax+Df6iJrAuLS3V/hBP5r4CfxETmBLoO9Ntr/HyF+AvWgILgv+yG8BMKrf2/EVKYLpD6MsF76xzj3u9+YuUQLqB5BIGQ9LlNecvSgIThL8Ds/jMWnP+IiTQIgqcW+f4NgyiI7CJ/FVN9PdLIDIC06T0sbaRWWhERiBxocvRCLcOiIpACxfg2fqXOowRFYGpzVTg6AjEEkjHiki4dUBEBMZxAa5xfjk8IiIQt5DW6hZgZdzvjyvhxz3dvLzcnIYelq4VCvGAX2NG4Ezw8a3uY1CD90MLaoKxfXg8iDlo/Dq0x6bjbs5Pfn538fDz5PzGcJg1Srbd1Ei1s5vShEuBBN4uBW90h1mF3GnU4JqhjCFwmz2OCfiV1c6oi6cLj7wlft49BY+r7dHCQ67o/KjU7hJLSvUEWnY+Q+U+trklPYIvawfLFxLjaUOkz5nQaQCFT/cPIn3OQrwPoLBQ3pGxN6Ns3/9z6ahpCbS7jNxdW34QPnmnZEBJGFQmLH0OhRONgTp9Zelz8Kqxh+kkX1VsFcIS+OOXQu68pMg4ZRFHwX2VFK4i91XjXt6V9M0V+UU1riAVvDxUR+EInGSUYg8uhWc78DXR5qds5fJbLEKbH3elo2+ux1f8uJSmKSAHDReBBFYedWJnBLFh0bc+wZaMrJ6+ObLcuNcA/ma44MY1Zdp4BBFYyYcRG93onoaOwp6HpBo4YBLMXyw2+RB/M0P4Cf6CCAzkj67BAnxyUUOgWLTTizbTXxP+YjFb/J5zE/6+fz//kHxGBB4GS5354T+Oyfy9zxLob0I/ZCs86HYHWlHm+M2YvPd3Zk/+TccV5O231WnxRlFPoDTzg/xwmO/S17p+SIUE6rwYIwKXkfSt8IWD6aXzlZXLqUBilziETwJVD/fXjtdyei36hQ/EIRSKijutUsLxkmpNpllUS+CY7nyZw8UMj7PkJx2uhsBlLoyqwSALMXAlSyk8xG85oSTdgc93ekcpPMFxJSLGQRN8zITU8KglkG7AQ/D6LOLbLDUHCSSbwEcI9DrdqALnhajjllhpVGKqwM9C1PH0TN4Gd7BGpChTb8zaF6TUEfiDTPwRFeASVuex92Kkm4iXiyAMTeUPIws077/+hgTdy+Pu8f03/3USv8l6JMiuIxAlH0iePtpHj1x0Y3TlkDAEkmk85D6NMLhcgr8D+BNUfLkEcRGwakRdHA2BfRCrwURKwK+3BC3YvjqfJXChwkN+fQEszNAMOXre2HFkjS6tYBFE6LEh9q4hgVMQy5Y+pU8yI968Q/xY1cT3ITaRCnxNRpFE68MzjcUWc4r7hyL5d4PPLLaYNHgrOb4mlsYUl4ZA2N/EmbdswcH2VAv3eU1LQgg3Bi0FE2q4wLlemBOMgZlQw8W/8NCVLJoqI4xpdzWBaHuogzqeSD6sN+/YVqQpycUTKoAFdw/egIHLKNN+t7AEF3MJGvygTPs9yToMGpxTpUNwlaoJhPDzGEdfPnLZGdt9E+fvQ0V1WMLuCu763zFUDwOHq+u+8iBRwwFofndfASOk9iPACqoJBJl81bmlLrS3NPLcNqycQB2gLO8Mr8jKyQEUPeMoA64tRcJqDlR0xwhiTUJ99gzWiZpAYMrT4P4hl5QbTMG2d8x0WAWYADcdhq6AJnE/hscchwGdGE3iHnl2HBkMBdQLAMRUE+grqjunFVuq58xxbJPqIhrBDxRFYGpdC3AEE6UbCFbZWaiwtB5040DTrwUBdAnNs2ACb6nkYzFud9A4FPIftLkyfFIfjIsbA4BuHusGQr7fnv8NiayfunFQrHOSWrDB6hKafkisJBB0p6vYOLpcQRErCaG3EQu2N9cCQSaa96IXALfKSfFe+MQ868a9+c/dzf/eN5O+F0wgeDGNLsNe5lGsh7ggwXbYJQgKtCiprJpASCk4qX3IxOxqhoUjkMFgouoIiGMyMmx3ESSLFgpkSiDYZ4fAO58YRRznQqPCuhUYToUl5I80xGAsGbK7A8vyiy0cbGBXNxSUxJ7/DZvIu24cbCKOtwOZAt0e6BsqJYFjiTZv8U2VJVgHJJ0WqkUau9O9oigoQkbTTFQBG+3sa+jGaIrnGDE7eX2YwzONpP5TSgItvhr8yw7siSJL8CBEjyqaT09/wBmI8UbXwSU85uxsNyIzPK7hMcddxOlX9/aAr2HkSHtoDEWvhUOcVF/Mz8/wHhB4T0wy1QNkExbuIujmv+pxkFR13UX0A9SHv406E6SCendi0AY1Bz2p2TNksIa8+/YHo1yl5a0AzY/uS88iNRxOgeZn9yUIxtUZTbA1RsmEuQF61ESiAixaeTFbgwVyOsIPQ7ElwVYNxpzXotIPfow6GMa68aI4jLOvMuCoK2bpLBLuBqNGS6gdg8NK9H4KCALGYIu7CvtbAXPjJV25ZKkIXIBexIxGsK1Y8pj11CRUQaqBSnkVNlHojMgFNkvXSSk7h+YbU7cKK4j51KW3iB2VbEmElpWW3iKqD28FSTrYMKXPFnPmof4x79OQnXiGsrZbVbzdiMhNivs2N5x/grR1sEp8xT6B9LBeGNUvw6ISn4vrz2x3g22KssQaflV9vVi6JHRS0FKOBZoQazByHGGOzfe2iX66qRYKdGFgo7EwmmeOSsY7RFjTsmaDUda+u/exi1Bsj5jJkmRNYa0kXn/SEqgmCywjzVeWOKy2/wbtLJIaiO7I27BEif3JiVnVmvDDzAvrEoOXnu/ALkJhohy06wVqlgt1+W4oedJpHjJP5qtPq1sk5UX7yp9Jae6GNiZgyktwIoo4n1ZTbDHStnZgSTaWmZA98HaaUf2oBYPsvVlnvWI9lRqNUs16scf1OzHn2/s0KMoMlyHJj6HwFpHj5TvFyTIk+X0ivEUafYXmLF910k15VWgJvKVJ1K6fgukL+VUu0E+bXnwXwB/TnjrITyeTaV7K8QqqcCHQ9P3h+f719f5ZanC7o+OkO1ta5WSpVGRXhL697UiUsDucS/7YFV4WG/NcWOJeHAzF/QBDUQ4eUtlOXGgKSGW73WBJzQgkrowGNvuzZ/Y45PVtbcVWHdwoO0de8rNP30z4e5P8bMmJ+DCBckTMQdkxEPICQfUNjCYMyvyZMSjzNzM/xnIHNpkbMKjmj9u2lDjQxStWoBYP2TjvNFCLT9g4L80dUvJFNSfwmxXUJi17ZhRxQ0u4F5BzyKqPq8RU/vwc0k5CcacYZpXUou6HO2iT1R5xkc7ayKgZ2ORycMKhz9alXSgiSgcv0jlDH+qDSt++JVRHlZphj3rpJH80yhHGS9wt5ktUi2YHO9kjezH+1B7iXHFYTnVKaYF0iTM/rURUhw1n+BW8/BZQ3AQ/Q66sO4Ur4Eg8NDpDnj03SnH1xmweevrmkCf+oD7/MiDQ8Lgr19fhtxSZwSrUy4JWHPQWJwjMMc4+gv88yKtOLou4uUD/+eH5wuzE9Wzi4d8nlFOutGAfzcXvT/LYCGosOUW6kGrul2Z+fb05Knz0OOL40s5OJpPsZUgRbq7PX2c4vzY9ru4iPpqJXKqn/EDev940F+qTrP5RdjKdTrJH+srml4fv40R7pHJj4Gu1rgNpCxXSfrpGdyJwwxGvKztUIeu/SXczhUJiN6dujYIwb1NuRwyHdLOtW15Q+dT0z2wuakmvSlPlAySITHU9hJuKER5X4zxVrHtu1O1ghiA3cDJtKQkIkA826Xo6Y5CyZkvU4hRWnKK+W+hrgFTWd6rkv2XFSWZOcRhx45GgZc2z5CLhEU8JaerVXE/3BSAlo3OddrsjJQdXeD/imsPSFkSWyr0xV2SHh1FRbhvFaWDA4HYH1iKwL2XLXwAsxT8lcxHcc7uFuqy5s9NbwfWwXxCqfwza2i4/U3h5LUC1PNq6f2FQg1psrp0MUcPeYol0LTEaJT5chd1iiy222GKLLbb48vgPiO8BJbocG8AAAAAASUVORK5CYII=;" parent="3uin5VnQ3zqhtKhshG0Y-33" vertex="1">
                    <mxGeometry x="165.96590909090912" y="67.5" width="48.6875" height="17.040625000000002" as="geometry"/>
                </mxCell>
                <mxCell id="3uin5VnQ3zqhtKhshG0Y-37" value="" style="shape=image;imageAspect=0;aspect=fixed;verticalLabelPosition=bottom;verticalAlign=top;image=data:image/png,iVBORw0KGgoAAAANSUhEUgAAAOEAAABLCAYAAACGNODyAAASqElEQVR4Xu1deYxURRr/ZnqYk5EBQU5BVOQQZWCy6riGYwQNaDwiYgyw4GIMomZDjBoO/QPFDXiTqHi7WckKnmxcWA+QMQi6OBwGEAIalWVgwIUxw8x0z3RPb37vdb2urnmvX73X7/UxVP1hZLqqXtWv6lffV99X9VVeNBqNkkoKAYVAxhDIUyTMGPbqwwoBDQFFQjURFAIZRkCRMMMDoD6vEFAkVHNAIZBhBBQJMzwA6vMKAUVCNQcUAhlGQJEwwwOgPq8QUCRUc0AhkGEEFAkzPADq8woBRcIuNAcikQgFAoEu1KOzoyuKhCmM8++//04HDhygvXv30vHjxykUCmm1gQzXXnst1dTUpFC7u6K//PILvfrqqzRo0CC65557NFJ6Tc7Dhw/TW2+9RRdeeCHNmzfP8/rd9dyfUgy75uZmev7557WP3H///dSjRw/PPqhI6ALKzZs306pVq2j9+vVJSx86dIguvvhiF19wX+SCCy4gEBHp0UcfpWXLlrmvzKRka2srlZaWGr+8/vrrGhG7amIkvOOOO2jdunVaN2+++Wb6+OOPPeuyIqEDKCH55syZY0s+VuWmTZvSKg2xWnfv3t3o0YwZM2jt2rUOemiftb6+ngYOHGhkXLx4MS1fvty+YI7nKC8vpzNnzmi96NmzJ508edIz1V+RUHJyQAKMHDnSkDJ2xcaMGUN1dXWeDZTd9/C7IqEMSu7y5DwJO2L9zif9/yIR/fZUXiBA+e4wSVsppo5MnjyZINn4hBUR+4Pq6moaNmyY9hNT1QYMGJC0jUAiGjOkBGM5wyhPRPlhoo4C/Y9O8BFVxbNZErJxA7bAVRsbDc8O6uBQlcW3V69edPr0aa2evn37ajYAr5JvkhCTLN5B/V/4bxsRFRNp/6//RRYGr7rsvJ4PPviApk+fnlBw5cqV9NBDDzmvjJWIEW1bQz1tOnSA/hcK0blFRTSyV1+aNupS6h4miuQ5s3YqEgLc+MwCtrUHD1JDe5C6B0qp8rzeOrYuRi2nSYgVCRJvV/0x+vfhAxQMhemSXufSrVXjXIHhAr+Ui/Tr148aGhqMel566SW69957U663rv4Y/WPPbgqXVxh1lYbbaGR5Od1eNY66OXQ5KBLGSQhs//bDbioO6Ni2FRAxbGdXjUsYOxlRkNMkRG/ZZAudU0qBaKEGQJ+OID04fpImFbM5ffvtt3TVVVcZTcReb/fu3Sk3GQP/16++pJP5xVQeIooEoCMQtRQUUkFTI/25uppGVFQ40hMUCXUSBimflm2ppaZuROXt+lCFSZ93BdRGC6oupwHlPQ1suywJ2SxFB9fU7aS61hB1hBo1tYCfaKMq4lIg5ZntQwWw/C1dutSoecOGDTR16tSUvwQ724rPP6emku5UGCYKFjVTtKObUe/coZdQ1YD+jr6jSKiT8Azl0+JNGylaXNqJhJCI04cNoav7DoiRMG6xSAZ2TkpCvUP6JpiREOoAViSmGsyqHEPZTsKJEydSbW2tMT4wTffu3dsROcwyw2CwPEZCXhICn2CkkeaMrFQkdIWyLgmXbtxI0LwgCbHoI2H+tbW2cFoGIyB+TW6byFESxlcYXj8HASN5bVTR0kZLpkzJenU0Ly/PmAqwhp46dcrV1DArtG7/Ptp67FfKL6rQpCGwQSpvPUOPTJnieM+sJKG+8INQf49pX/gLwxbzDumFP07QLNCk4d2lJWGsc+F8ChYQbTp0kD799ScqbCPq3aOEbhpVmfVSEM75Ck5d9vqkBFTSj+p20o7GBk11QuodjdDto8fFsJHZrcTprUgYx4Jh+0NTkyYJQcS+4QjNqP4DnV9WpPktnLiBclIS8usL89kAmEBrK+WVlFCx5ArkmdhxUZHvp0Niq/F/m05TQ1OQSqJ5NHhgP00CArP2QMCRpqBIyDZBug8WVvn6GLb4ZfiA/tSdm3dyMlCvM2tJ2NkXCDOUrltD+nW2fHLdNtSBRHbwh429PnjslIc4qMyc8Cjrx1lMp21Kll+R0Es0E+vKWhIyfZqdQGiJqdn6NjjRWc/y6Fo5aQbjbHfWKxJ2ntS+awf+8SilmrOOhHEJqFuivmuop0+/30et4TD1LCumP1VdrevdWorn2fDDIQq0t2nO+okjLuXy6DlffvllWrBggfb/2H/hhL4Xlki36CsSKhIyBLKYhET7Gxvpze3bNXMwc8SL1j3eWV/SXkit3dqoX6SDFo2fZBiG16xZQ7NmzUoYda8c44qEbhFQJMwJEjJTMMy/zCcDfwzzAYrOehwjgikep0L+Mr7GkIY4lYLTKWJK1508s/2nkoSKhAwB/hZFVhzg5g9fMxLyjnh27Io54pHnP8EmjaTMWS/mySQJGQF/++03amtju1aiI0eOJBxZW7hwIeH+HJ/HSsbY3aIQy2GvBT9kSUmJtNiCIYad7EehlpaWBEMSU+ll2ouJJXML3+2eEBjj/O2JEyeMCARFRUU0dOhQT2+pm4GHNqN/LMmEAEEZPo0ePTrhFsXOnTulxonhmiyzq1sUPAmhjq6u264dlOUd8bqzWc8p46w3U0eHDx+uhY9IR3rjjTfo7rvv9uxTUKW3b98uRSr+1ras5BfPtKbacEyWgwcP2hLCCQnhZ/3kk0/ovffeS3oRGovP3Llz6cYbb/T8EvQtt9xifPvo0aNktziK2k+quKK83ZimRsKYIx6GGVzHCbdGqKysG80cU03nl7FzkPmEI1pw1n/XcJRC4QCdUxiN5WHGG72rmTTM8OqGF8CjDplzpghFgZAULD3xxBO0ZMkSyyYwqc1PLq/aKxOqwoqEaBcSpAzyoB8YTzcJ7QApZSRWsvpx0H7s2LFGFpnbL8D+ySefdNNsyzLQoJ599lnL312R0Kw2EC3a2kpFJSWa6wEXdwEi70tkeZiznuXhBxD/jzACXgbSkUHUj0lttwKiXW73nX5MFplwHHaS8KmnnqKHH35YBvKkeSAdN27cSFdeeaXrutyQ0GuNCI23I78jEjKysBXPDB2eUOx3M6OHjCNezOO2HplRRGgIgNXY2Gis6Ngj8qs5JsR1112nnWZJlrD43HDDDVITyC0J0Qasrvv3709oyttvv238e8iQITRp0iSZ7muq4G233Wab14qEUD2vv/56U+MaKmVtueKKK6iwUPck43b6jh07kqqq7PK0zHwRG++GhPgOMNy6daslrojjI17ytgIOURcQ9S5ZkiYhQLaTTnZ5RClnRapgMEhlZWVau2Xy2M4cmwxmCweKOFUV3bTDLQmtFsCCgtgpcCJyE97CbrKLJMQpokWLFmnBn3gjEWsfVDH4fpNFncM3P/vsM1qxYkXCjRW+jmTqnBXubkhoVRfvJ8SC8vPPP0sPtx2mtiQUQzt88803nVZ4XoRDjUBIwMrKyoRG8moKDC7YsIsDw9/dg2EDeyp+I43OPPbYY4bOjtie7777rm8OfS8JYjViXn4jE8fWEGFg27ZttGfPnoQuYgF48cUXHY8N5g6suiyyGauURXWzm9B8I/wiYVpdFFYWOKhsTCpCb582bVqnOQZzOTO3m8VoQYFwOGxsvs10cbGzZvsNqIhYGPxIXhKkq5LQrF+8gccJaVhdWEzuvPPOTmrq+++/L6Uys3q6BAmtNv88GFA1zKxg/CbfyujBS1VITnE1BZi8cYO/28cPvozp2Q1JFQk7oyaqo2IO0SLshoSsTt51w/7m5FJ1lyAhVL/HH3+800jwQMuQ0AxMVLpr1y5DbZVx1osBl9wMjBMyKhI6I6GdFdAJ9iyvuDjDdYEQ/DKpS5DQynHJq5pWKiuvapqprKKqaaayiqqmmcrq9UVbfnAVCeVJiP35F198IcMNR3nMJK+M6wcfyXkSMjUCJEPod5ymANCrV6/uZFABybBBhzURpMCKKJ5MAMnuu+8+7eiS1aYdJEMsT1jZsOLhAQ7RIgvVF34obNzxzWeeeUbqVIqjkY9lViSUJyGshbAa+pFEW4Cd87tL7Ql5fR6bZbNzjVZ5+L+b5cHf+AjcTr/F8lu5F7yYDIqEciRkKqJfYyGGGUGreE3LaqxzXhLKTOL4GVKWO1/z64FcSPFLu3xUKz0MvniaRhxAvwZUpl8sjyKhHAnN3FZOcJbJe9ddd2lOdJZ4e8JZTUJ0ntELt+pPN4eoZ1mRESMlEECksnj4e0S06JxHJyyTbFj14ALxS7WRGXBFQmuUzPZovI3ACb5O8op2hVdeecX2JEqXloTieVAczv7y8E/UVkjUt1sx3Xr52Fj0aD0nAjzVxvIA+PLyIi6imD4UIOEDDzxguDtwNAirXbrf9+MnhpKE9pJwwoQJtGXLFid8cpVXHAuZfeFZQ0IxxD3uFSKEhXiVCW8u4PY9u1mP0H6PXFNjBIPib1DwoxSN6i84ZSIpEtqT0InLIJUxFE8DyVjFzwISxqNr48KuJuFil3YRQXp+VbUWO5O/WY/b9yAh7h0iJD7Lg7IyzvpUBtFNWUVCexKmMwIdf1hDRgKfFSTkIx2zm/WIH5MXbDElIfIgIRirSEIx3Dwbfj9N33bEVCS0J6GMWmiHs8zv2K7wh9MVCTnL55HmEL3w1WbKL4k/QYVAT3yIe/72PQCHJDw/GKGFk68xAj2ZOfT9cgDLDDryKBJ2RsqNWiiLd7J8okEIPmL4o5Ols0MShvO1UOIHGhvpo+93aXgMLuvBvT2oG2Zwmfenxkb65/7dFAlHaVjv84yHMPX3APQEImJlhXV03rx52mtITmKueDHYfB2KhOaI8td6YEBratK3I34m8WSWzCOtXpIw6wI9sdeWALr25HM0YMT1ZwPBnsbW/51vxP5HfO5E/6IesdvPC7tuJ0euk1DGeOEGG/EssOwxMjffYmXcPFHnJQkRggQnwpDSepUpFdD4127ijvfYC0cIlQ/jjO2DVKm1INXSioTmCIpBuVK5/S47RmIMIP46nVUdXpKQv2CAO7O4zZFqDBzWbttLvbIgifn4iGzMoX+0OURN7a00uKKCc+jrzvpsTLlGQix2ffr0MW64+xWtzsxhL3OMzO0Yi/YCWVuBlyQUr+N5eUAhDSQk7eVUPAG254T+7ruZs97tAPlZLtdICCxEK7Nf5BAnpV2UOKfjxB9bFKUgu0pnd1fRSxKKx+ac3Gu067tvJNQ/rMvDf8XeJsQbfFbOeruGZuL3XCShOFn82q+JExzjI3Oe0+k4ihfLnezHvCShuCf18rys7yTEa0wrt22h4x1F+gu9wUIKBbAljIfKdzow6cqfiyQU71y+8847NHPmTF8gEwmPjzAJYSelZBpkdsdUJiwjq9tLEopt8fICc1pIyL9ZD4DMnPUyg5LuPLlIQrHNfu0LMRYIEwkXhZi8OGBhFpFdxjfIt8VLEor7YBZxzYvFxjcSiqHy8XJTYUmpRkBIRLzK9OD4SY5eolUkTI4AmxC8OR0l/JCG7Ftmaim+KRN93Kw3qBcXu5977rmEnzHpf/zxR+1vslZJL0mI744YMUK73M6S08BTVqOXFhKCkHDo8876m0ZdSsUWr/Wmm2xW38tFSYi+mKlxMiHu3eJuFXEPVsynn366U/hLs+/gJM6HH37Y6Xk85AUBEQTMLu6tWK/XJDTDVWaBs5OWvpHQyqEP1zxO0CDp79brzvpsTLlKQmBpdhYXRg1Eg0ZM10GDBhFeRWLqJF5HkpUw/FixCYZ4oSCdWYJKPHv2bEI06sGDB1NpaSm1t7drrpR9+/bR119/bfluBcritIxTAqIdXpMQdZpdNGAP2lRVVVH//v219+0Zrvg3C2SddkmYjaRy2qZcJqFZSAi7/qdqdmcxhsxCV9p92+x3FvDXTVm/SGgX8tGsrXZWYx8loVvosqecSMJUJ4VZz/z4Bh+lAO9LwKIok2Ruq8vUk+qjKpDUCGUBqWOnyiVrj5eSkPdb4o0SvEVRW1srA4d2HjotrzJJtSbHMonXZ7zaiPMwiLcS3Bo0kkELVXHVqlVJH15BeS99X8AOTxS89tpr0pMVF4Tnz58v9ZCOzFQStQEn7g2Z+rEXxsK1fv36pNnt9o1KElrAx1ZgqB8INgvLGKRKKiuz1UhBjcNAjRs3jqZOnSoz/q7ywKWwd+9eOnXqlPagCcJGsld8sV+rqanxpX8gAx57xeu2+HYoFNLajz0pcL3ooovosssuc7UntQKCjRM0jbVr1xrY+jF+WEhhNT127Jj2NiMwRT+R2LxJNmCKhA6nsx+DyDfB7/qTdTeT33Y4DFLZxf5ka/8UCaWGU2VSCPiHgCKhf9iqmhUCUggoEkrBpDIpBPxDQJHQP2xVzQoBKQQUCaVgUpkUAv4hoEjoH7aqZoWAFAKKhFIwqUwKAf8QUCT0D1tVs0JACgFFQimYVCaFgH8IKBL6h62qWSEghcD/AY/wK/J4MPziAAAAAElFTkSuQmCC;" parent="3uin5VnQ3zqhtKhshG0Y-33" vertex="1">
                    <mxGeometry x="193.4090909090909" y="104.99999999999999" width="60.859375" height="20.2873125" as="geometry"/>
                </mxCell>
                <mxCell id="3uin5VnQ3zqhtKhshG0Y-38" value="" style="shape=image;imageAspect=0;aspect=fixed;verticalLabelPosition=bottom;verticalAlign=top;image=data:image/png,iVBORw0KGgoAAAANSUhEUgAAARsAAACyCAMAAABFl5uBAAAAk1BMVEX///9TVVYcmtZERkdISkvg4eHn6OhMTk9UVldeYGHHyMjKy8tQUlP19vbT09Ty8vI/QkMAlNS5urrb29vu7u5aXF2BgoOxsrKYmZm/v8CQkZKKi4x1d3inqKhqa2x7fH2hoqLs9vtvcHFmZ2jd7ffC4PKv1+6Fw+ao0+yZzOnM5fQnnthXrt5Aptvp9ftyuuKKxefstSuMAAAKoElEQVR4nO2d24KiOBCGtROIYBAUD4jH0ZnZmZ3tnX3/p1sQlcoJEuhd7ZjvrltMxZ+kUgmhMhh8LF+/ff/29YPLtIIvf7xNS95+f3l0VZ6Nb2/Tt4rp9PujK/Nc/Lgpc1Hn56Or80z8CaUpxPn26Ao9Eb/eOB5doefh+5STxvWqO3/xzebt/dFVeha+CNK8Tf9+dKWehL/5LlVo42LACqeNGlmfctpceRe0+fXoKj0Nfwid6vejq/Q0fBXiG9el7nANZ+qaDeCdEcdFfgxAnOm7W8Fh+Tmt1JlO/3l0VZ6PL99/v/96/+uHazQOh8PhcDgcDofD4XCYE829NPXj6P+16afef2mzvwFvtdmTBJUkKFgex/HH1U7FZLc50avNZLHNV+nHlh8JBjzzQsINQZjQ4Q1KCU4WR52SvEkHewXx7JAgAmwOC5uIbMJOpUkNbAsDlP1RhYGxSSHzDGNQRVBXtFi1tJ4VLW4JWRlXfLJEUptDgnHWTWyW8eEDDEQZJrIyKnkw3vgNX16iy2V4a1bxMEDSel9rj04Ts/IE1i0GtloGZkStzFXnTOnFVuh6Ed4ZVDw9NVX8ckvQvo/nmezbDZxaDcQH1FzIRR2yVny97sxYu+Lxpq3il8onm67jynypZQDlzQY82tJoriRL6dd9XF/R1PMg64YezEBot461RroGhk1NZ5JoCFyVs5hLvg+0QZruLU80LZZN59hBmo2JAbUnGOsXU4xZEpGNtYnPuMGGAD6Z9qt5oNlorgZUY8hEw9XUUCSKY6qNP9Jtp1fkzVWNR00NBFL1PSKUU8ZGRQiIEcaSD4d9tfGHkppfbJZITBafGokj+UntBmQBXMBdSTHd7kJvXuBPZvlZ8JlIGK3MtJmL0hBMztls4vm+N5lleyK6URroT1188ccXJe4rA2n5m4g4ENCz2HI27FUkWXKxtLejbGBJ8l7aRAvhZpCcnbTFk5zwwSzZ60oT8z22MJBNWAPjjTAFICe+oJBxNhRJo9/1ArpOsuE/N9LmxN4Mis7SmVN45qITcmgr+cqecgZO0plTETKz4mDud0XMeEEWqlBiBVTGwqzJRJuMHaHISDmnHI9YFZFezJ2zBnCgDI/WXFSH2B+Ww0/xVj1U+uf7lYlwlYE2Y/ZmNQelGXtxojN/WHMd4dhwbbRhDWBYeQ9GNnyb4riVk4gTB31tIsYPU6yahFwJGa9KF81Xl8RMU6DKjnBlxngdGoCPoCMmbXPoXTH6FRP7mfiJvjaM56fDVufkMX5VYya7hAaIZOzhSJlICLgLHzQpjZvi7za5dB1HWxsPtmGtYTlmQgzcFuWksCOII4+EOav+XcwMiKw7EZKhrc0Wru4NtSKWGN5YMXzggGMU00O0Kl8YyK7/jcyaq1bxjdowsxOsOWP3sP6XoKenVDNaZNrarWWC2EbHzanR1eYA7qoYXauAI09Lw4HtUmtUu7AC6t8aDnCMMg+rj6Y2PrhBrb0DAAONRo8D3ZlJRzjAIalqbXXwTkf6BUnQ1OYIf6PBqkMMWkPjTwYiajqbijms2GWoAiqTo0FJIpragBHBrJ3O6vKbOn8Eu6zRYuEOGDiX/wDdLOn3tENPG+CJJescjQBVJctHN4AnpjrDdw1U9eLua89YadUdPW1AxCBOyZoBDYeoOxXoUsjowVzRcLi61VrdR/WO6GlzBgYNnyNHtRen6rUK4D9Nh905aHLF/GBe/yBsqDKPljYx6NPyxxUNbGpdE41amN9sMPoTpvsnZquxTbVSazMG98L4WTf4stLhrDWuUQJ6bTEbh3+ZlsShpc0KeAPjewEanXKIAyECMS0fTi2LO1e7H0OnLilYR5s60uzi+uspp7K/gLHFuM8y3nc3yGtrBjGqFC1tTr2qDpRVfRvIdzQ3cIDib3sVxaClTb+qa7RyEFlqz9VqMih+PZ03jTYEdLSJFr2qXjta1WwAxG9mQXHFCoof1HXtNdEcaGoz6qVNWJtQzP3Aaqj5MMUMVOdBv/vIYKpNh+1qExAdya+A2nSYAoEIIBgMe9WVwVSbDqEmnIzJr+ipTei0UeK0UWOHNoqg12njtBFx2qhx2qhx2qhx2qhx2qhx2qhx2qhx2qhx2qhx2qhx2qhx2qhx2qgB2iieNDptnDYiThs1Ths1Ths1Ths1Ths1Ths1Ths1Ths1Ths1Ths1Ztp02H9jxx4ThTYR0KbLvi2btYH7/ToYALv2LdSmNtAh7xfc+W6hNqdem4IDK7RBikvq12A6bO4Gb5PYqA18H8w4XyN4YcJGbWC3M975Ct8JtVAbEOBQwzyDgwFMR2ChNvDFed2Xz2+AqNhObUCIYvpyGZMzx0Zt4OvhxOgVLTbzjI3awLsvJndqgs05ZqU24H0NoznVDnobS7UB002TV309Vho7tWGyOuj3Kj5xnJ3aRNCnIs0ZJ8zUYbE2gyPsHomWOBuuR1mrDRPfamW9WwrSWKsNm8IOtYWA0VaUxlptOO+B940xYDrifc0n10aZkOJCzGZypQ1rgFEmTxpurTZCOmYcyBcsop0qEbq92tRJ/29NBw93wrQ8zbDE01ivDZ+G9HL4xvk49q8pvmI/zEdNieZt1oZPRVvJgzFd7A/b84LKsnlDL2W1NoNcngKeXpB+hJdWPGfQ0GZwNMqPX7ikECymW65NEQMaZNonNLVkr4CWNgM/UI5DPKjMaf1K2hTDld5pJaRK4/Ja2gzS1mOEysMJNtVzvhfTpvA6fLJ+QZnlrb6MNv3qyqClzbCXvW7aDAbjrfQYj5LyvLG6tow2db6tPimvK+ogU13xOi2k9jlMgFp+owyz5Td3gXiqW3kAyn4Gn5oz2txXOnqnsANPkxsWaVf97N13kHTI0O3PliQpD7e5gDFKgnzNLV4w2tzOqCOkw23kiK5HGpFRQ1riU2WdtCaEl+Jfz5zD2mefsMRpuNodsyw/rsay7YCsNoMjKc8K2vaXphAnL24LRs3nrx1xec2hY4LO+bI0gXumhVXCaTOIw93sI5QpmYczvpkKxMU1Pez561n4nx2EymvjqAHa9MqrbyPgeXG/5PEWsiKuT6moHxc3ZNZ+Ufpl+LWbj8sebx3gzJEuu9qtBmZI73v4tG2AY3y6zWnsZQ4OgHChH0uP7be2A08p6/Jims3AjaJuxsAAz5+yvEt54dhsqIEHT3Z5D/bTMAkQRi2rbCwzeIJg/wXi52VWPXVRHJYuw2c23vZ9HvXE3A+E1F48ZQ4f7XtK2VNTbxVpPOW4hj341fS8s08F6B+tG2hLfObIWqp7RvmnhDn5tX0hZsI+9DR/B/YzwWzjI0HLgMxtYUJ9D8Z5bpjD4ocU5w2RzpjbokMsX/DzuR1JhOSKtpNuuT0WVH/Y/6Ss+Z1+BO13gjzR7MTvPqH0ox5jPi+ZsJeNEkQPx3U6v7SLyBvvtuLOCrsnCzfEF6KG1aYSlFxA0u3FyWssTWzMNtBW0r1CqylRvN+ihgT2+5obY+l7UUrw1vYRChLl+k2H6ry6aBVpyxbRO+j8Ov3pThi0q0MxtXueoCTcJ6oNtFdlRi/8fDfNRkghTxERBi+szIVJFpQvk7FvuFKMguw1or0W/HB3WBSBMb5QxMWL5ar3fnObiHxvMi6YpH5bNPMvYPejv+HrZUoAAAAASUVORK5CYII=;" parent="3uin5VnQ3zqhtKhshG0Y-33" vertex="1">
                    <mxGeometry x="292.72727272727275" y="45" width="44.33125000000001" height="27.882562500000002" as="geometry"/>
                </mxCell>
                <mxCell id="3uin5VnQ3zqhtKhshG0Y-39" value="" style="shape=image;imageAspect=0;aspect=fixed;verticalLabelPosition=bottom;verticalAlign=top;image=data:image/png,iVBORw0KGgoAAAANSUhEUgAAARMAAABJCAYAAAAey8KdAAAZF0lEQVR4Xu1deXxVRZY+L2QlPkAIuLCIQCO40SAispmWBmQ0iNqCCA6gONrYLjT2tEs7OoraKjYurY0CElpA0BHUgICAA2IUlEXGhR2BAJINDJksJC95/Tv1qHjzXlWdc2+uSrDun8l9dau+OvXV2epUIBwOh8E+FgGLgEWgjggELJnUEUH7c4uARUAgYMnECoJFwCLgCwKWTHyB0TZiEbAIWDKxMmARsAj4goAlE19gtI1YBCwClkysDFgELAK+IGDJxBcYbSMWAYuAJRMrAxYBi4AvCFgy8QVG24hFwCJgycTKgEXAIuALApZMfIHRNmIRsAhYMrEyYBGwCPiCgCUTX2C0jVgELAKWTKwMWAQsAr4g4JlMjhYfg7z8EigqKq/pSGpqIgRPSYSWZzbypXO2kRMPgcrKaqgMVYmOJcQ3gISEuBOvk7ZHbARwHR87FoKkpHhISU6o03yyySS/oATeX7YTlqzYB/MzD/7Q2WSHMJVX1/y948WnwPAhrWFg/7bQ59I27MFxXiwtqxSCXJenLosAF1RdHu636/Id7jdM49i5+zBkf5oDn23IhRUf58P2z/9f+XrXyxpDn4ubQd9eLSG971nQPC3VMzycMSOZNUxJMH6DaofThvMDVHu6zlDzwG2XaocD+Mef7oPVa3JgzdpcWLbiMEBxZFOo9STHQZ/0JvCb3qdBet/WcPllZ3OaFu+QZIIk8sgT2fDylN0AzRIgpXEDSE0MkB84FgpDcVk1wIFKSOuUDLNf7A2DftuB/B31woZNB6F7t7cAIJl6VfP/MKR1SoH8LaM9/h5g1K2LYc70HITPQxthCIdvJ3/3+NPZ8Jc/f+nxG+VQUXGn513mw9Xfwr0Pr4NNq4sAmsUDpMZBMDEASfHq8Yq5rggDlFQDFFbC0BvPgCcf7g2dOqaR44x+4bmXPoMJf9hIjNs8vmUrdsIVAxYTMlIOW7aNZPURF3xi4oseZK4cduy6CTq0a6rF4Z2srXDNkFXkeMPhu11jKX/wyowNcPufv4jMT+M4SEk1r+GSijCUHcO5rAIor4ZJT50PE+7sQRK4kUwik7ISoE0ipDX0rs4KYdt5DMZPOBte+ttAz6DgD2fN2Qxj7l4Pac3jPbdTsLUcwuHbPP/+jj9+AC+/fcATJvjtktKbyYlBwlrwYT6LuKMHgt+oqLjVNZngohk2JgvemXsIUtolefo29kUI4+5ymPz8r2HiXT1d4SwE//4vIA1JTPNQ40My7J+xEtJa6rUXbGPLtutckMk0sSm6eQoKQzDtmW4wbnRX7c/EGrt2FdlXL/KKmmW3Qe9B8ZEqCJ7aQLsZUGMqOBICyA3Bmk8GG60MLZlIxsRd3K+n4EAljB/Xpk6Ecu+DH8Kzs/caFzIKs0l7QkHaset6445hGnNdFzpHiJt3nuUZdi5hOT+ARNKu+xzYX1gJacG6mZCyXezHQ491hkf/0o89FkEmD34BaafWfzJBObyoYyqsWXK9dvxc4nNLJlu3F0Dnc/4Hgh2SPZNI7CZVBlnvXw5XDe6oHI+STA4cPAqtWs4V5oDfDwrYylUDXdlizj50S58HOw+UawHCCRzU81RYtvaIllCQ1LLm99OCQo35hrFZ8N5HhUbCSk6Mg/KKWN8KfnvpgnSjyRdRq9U7IbaLj6pt5yIuOjoGGgWTqKHU/D9j+DuwKPuwb0Ti7Au1ozk7eTJpJjguitjRj9F30Ae+aiboU0xtmgnBVgm+EckP81kGO3YNU27ESjK5ZuS7xsVY03BpNcCRqogjJ9gAUprHk6oxmjxtWiTCV9k3sgXd+WIg8IpR3SzID0HW630h46Y1WlMI1bbJD5znWgWX/aDwKSiugin3nw8TnvwqZnHit6c8dAHcc0cP7fhRPf1V+7dixolEOe7alrB9VzF88uVRraCgAOflj2I7QsXumP4BS40XKm8o0nWO/wzn+4xTE2DbZyNZ830yaSaCTIjNQ5DJ5csgrW2iFh+3Zvldf1oOL76Rw94YKE3e2TF898J2KbB2+fCY/saQSUQreYMULGmyjLi+E6Q1awgFhaXw91c3w/ysPNKfgeDsPzDCdQhZt8jkqFBwQ9UAe9ddDy2az9aOAQEZ0q8ZzJuZwRLw6JeuuHYBfLT5qF7zyQ/B0nmXwRU3rI7BoqC0GsZf19Jo6ulUX1zImc92hzfe3uUrmVDjwfEjZvFxAM/cdwG0PDMIZeUh+Oe87bBoZSFrvrlm5UmnmZRWw8RRZ8Hkxy9XyprfZIKh3saNZpJWhfRjoh/oos5BIU/o1wx2SCK1GZ2/KYZM3lr4DQy79VOjgODOO+muc+DB/+wdA5DwaczaY2RFiq11K5xyVkkTZ+Gcq4GjwYQLbvFEJj0HzIdv9pTpNYM9FbDj6+uU2gVnp9btzojb+tX/Bvc8kA2bd5YYNRMuWQuVuOEMo/CZ+iyiTn/bavZx5IfgzWmXwvXXnEviXV81k6bBeMgprIzZYMSiPVIFOlkT0clei33TTDjrV87n4nmDa5kruFlfecMS+O5IpZFQdJp9DJnc/8gq+Ov03WYyMEQLIsyYaTZFGF5uldQ9+8JauPeJr7WCiyT30O0dhMMvcPoMCAb1HmxkV7d+BdknkkyOt52esVDp36HUVqGmvrk/xskszZeMEYvMZObCwcwS5gOVsDKrv9bPFWg03WzzuzAr66NmIs3Pw99XKCNwpsgRC38X0UdOgMIk+5gKYtLqpZbar0sjWLrg2lrLNIZMKH+ANCVKd43R7jKBlGlmpmX4DVSNU45P9JdkPt8dRo/sAtQ4CvZUwPpProSLup5J7pbRL5zTY46RveVkPfrXbGXkiTLzdE5mSUKUE9pNtEpE7cZmmzVRwgdDYu0geQrs+qiZIJlce3lz+N2Q9koscSef+viv4bZbLooZfiTq8rZ583VBJn0HvwUbtpfoTfDSarhzWCt44ZkB2qkQeVQf5GkjpkLbKqqCcF5tzT6GTKjOSKdS+Og4PZmcNdOY5MRxQqoaD6TNMAv9ngpY8+EgEQv/r0kfwWNTd2o1LCfxUAIe/X8qbCs1CMwYHjNhfUzOBJora5YN1MbsVSYaTuC5bSOOL45mxAk/47hE3o6ij84xU+RHkvwvgEz6d28Cr700QLmrm0LEfpNJgFp7hSGY+qSa2OScUxaA4AAFwcWQCccZRyX84GIwP2GY9NQFSp+L7ncs88nh2KUWCZpEE0e31TrGTP0nJ+y4mbNjZ6HSHsZkpswpEQ0q+tE5wLG/941rB08+kg4U4aPWtWXzNayELE4SIBLvwpm9YWhGJyUsIqz8Zq4BsjBMfKAjC+v6qpnIfJLWXV6HotKqGJ+DzrSgggq6hasDm/QVGmRPtimykB/7ksz1ic59iSETTnandOB8lT1CmWWJC4J6gsEkV3kQbm1LKhkIx9ChZTJsXHUD1dWY/wdazCAzNDE0i4enVP4jjOjoPPw67z4uaOnE5JAJ14SjnNpy8KhN5e0eoQw344IIYRjN8HAPgNZ3MhEO6Re2xaYEaELEJyKZCM3k7i8Akg3Ji+WlEJ3iH0MmnMlEmZGx6U8XZ3jOJHWziqkdFMkBz47IMzd+T5Kzr6RPyOFjUDknTWqvbpxOHw+lPbrxB3FwwrELO3l/pWc/E3eu66MD1mmC6jY93EBUvgpOKgblsK8lm1QeFkMzwT4dylUf6nR+K9rfGEMmHBtONhiJVXs7g8EVLvke5aWWTrDZ064UPzFlkdbsti6iHq4mzEEmOuekTkB0vh6nmoxmxcr13+udbA7fEQdn9EVxzm7I3IT7Hj4HHn2wn+uzP5y+cDazE+1sTnQips7UQO0u2td4IpIJZ55U7ygzYDFasDWnnMxmrVmUhSGAOICF0/R2tdcOyt+REQxF7gvp22CktitBo9jfQSY6Z5YuS1WldchTueG9Y0V3SDIhQrnRY5KnSrmHJ9F/g6fBM2f3VPp96jLX9VUzadywAeRsvkkMXecqUPkaT3oykYeE3J7NQfW64wUNYcbzfX2vYUI6lhSJUWTI0mOImuyLI4dF+CRUmbCa0LTKhIrWushxuSQTXAAN22eKDFddmQEVQeBOGzwtHt76Rx9fykvgN+qjZiKxkSa2zg+limJy8jp+ajPH62agPTUsbPdRa8m0+ugPS1V40DXN4e+T033xp3DsepWfgAoPRy9SDohc80kmxOn67nSoyu/qIlbRQsghE+owYfRYOTukCh8531ggadqUfp7ydpzt1kfNJJpMdFnFqnMt3Cgl99QwudExfCacdcA2c+SL02dtglvHrCPz/FUNy5oW9z3cSYQz6/JwIg4qs4HjtMUCTuH9N7O755ZMsGHVBKuOJGidd1GaBkkmxw876o6K6wYr/WVeaplE5jtSs+aZx39D1mvR9aE+aibRZiiOTeckjw4RnwhkwismFT1jWJdnfK15JiutyROlXgQMPy9OmcYHYH3WFZ53La9JNNxDVG7S6iO7zmtkxqKzzfN7z4V9eRW1TAjVYUNdNmp00hiHTEx5ISbmRLW7W/8FsP+7CmP4W9eG9Kd4LTNRXzUT1DSd5290eU7yVLsk+hOBTKg0CqWJqzhSQ5IJNoQDHjZ6MSxbmM86Vag2fcph6vSLlSnFlFpAZVjqyhpwVHc3YVSJBXn2KKqamioSpdrNBGk+/U1sjkJUtiGHTLgH63TYCxPxoW88FdeRpg+W+1MdBjXNd33UTMSmGTVHWvM26tQ4d3P6Mc2cn5RM5OQvWrIdMoZ/BNAwYMyO0+5aHipvCTOBSqPXHOtnmSQuTrRiX7gOM2dpRm3uSBTpqCq4qXJSKHKty1EB59yh2fO7sR/A1xtLPBXaQaIe//uzXFXWO1nIBHFs9KtMAWe0U9tJPCwZdXE2x4vP5GchEyloNcWO2yS5roOKQE7L7GGsi+kUaJYaaIjKYJTCWMLRkaZOaUhuyMRZg1XrC4mqQ6rqq/MktOwfVTaSU3uUM1b5jjS/MPxvqs2qVIf3VMCk/z6XraHUWzNHseC12bBby2H9xowas58kgB+ZTGpqPR+vmZuSFEemhahyfVhmjkpIcIeecP8qmDN9v2vTp2BrGew/cCOrOBIrjd7gcKRMAmf2ImeBsUynKHtSG6Vx5LnodihV1OenJhOJS6Ry/CbXBcZxvtdvHMLymZ1Mmol2E4na/H5uMkENdNbcryAhPg6SEhvAl1sOk2VJfSUTKWAI2Og/rIKvt5WRFbfkbzC1eOTAFiCzVU2LmIrICHvVcLCNCg+r7F1Tf1hhapVzSmGqOUO+WhtbkY9CHRE3HXnnEKbpHSTG8X9c4WoT4RRWlt88mTQTYaIrEhyjz4X93GQSPd+cAks/CpnUEoJxn7MddrhbVVT8B5mSzarcZih0xCIjF2UkvZKJys/hLOGoTXRSXI1BHcb0WuLBDdHIQsicur+SsDl1aeuzZqK6XsSUDSsjfpZMFJIn8hS6LDQWRqrRTpjFiag0ekqzYIWHXWSMcs4uqVhbFd52lkPUlmosrQaZRi+x45BJXQpmc0kFIxF9Br8Nm74tI31nmC1rqtZ2MmgmKjIRQQtFcXNniPikJBOZuQdB4oKr4hAUHR2rLCHA8SkIAmAmVlFAUyo0pz9udnIOYarIxKR5YNhPRRA6c5AkE0ON3miiQJ/SO3O/I2+UW7r8Sm3KPFV5Ts63rIJnIquTTTPR+sscEUhKxn/qdHpfzBxOmEpqAqZEL6owEVe4WCYFUf1bZ7c6BdpNWj3LIazwvmt9IoZ6sTrfB4dMZC1cSsug/C9irgitgoWJoXShs4/12WeiWxO6+jOSJDglLX7MPJMfxWfiF5mwcjEc9Vp1As9Ko2eUoaPKLIoFozAnVP1iLRxNKE+ZVp8fgjVZA6BvxvLYazE0i5hDJtwqcn6QCYewudqfOMLxp41k8SnT9aecvAmqWqBz7jnrwlSkWTcmWav30iuzRL0Y3SHLX7RmwsoNYSSLsdLoGWUEqCQvjrYlhYvlg9GQicr/g1rR2KvPhJnvHoyJ7etqr5JkwtDW5Hh8IxOqQj3zgBlLqyXua2ZtQi5q2dSVTLRa6ZEQTHuqGzz36hbIPVypVSLdkImubGSNr5KhIXIJnSzbSNlvcuGZ7mVhmScMhxyXBKgLnnTJQ87Z46bVc3c9lVqqK/Cku1FNJ0QcMqEqkMuxs6JlRA1Y1mJj+si41fJNBbO5fhdOdAlxYo2PqOCvSkhEbaRLh1TIK6yAw8XHr0lUUIobMqGq8KGsqa6pcH6WaiO6qqH8bUzSGsuZRuwy3MmkKqhjrdVgY/Pt7Qi0M3VdRe8shxJDU8K260ImnDC17L/JsUxVnePcGii/w/FRUALIIgBm9I5lRhrylMTCbz3TeGeS3BC5fggumZg2WF2+k8m8qdEmXGTAsjbOA5UwdUpX5Tk5oZXcvt58VY0G/xgy4exUcjJUJ0OFGdBrCVkHhcoz4ZhK4kBZcRWED5lv5mOZJsy0eq4KrRJUzkKpESDD9RAUmbh2KHfLoucrPwQTbztblJNISIhcno4P5+LtiLyUQUnpLWRpgsjCfZUse4HRwPH/3hoeuLdnTSa1TKDcfajCmA7uvPlRa1s4/uEHmXBkUNcXN5oJ9zvoVB/026Yw4rr2cPppqXAot0RcO7tsSSGZ2qHKyhZ+s3A4HHYOgksGQkCOV1bLGHCGaOLD7DzYtLqIFEzOZHIWHraD95VkzR9qlAlOeJgKMcsP6PIGaplMmp2EQ5A1ZGLQlDhk4uYuZbz9MO1UIh0A5/t4ucY+VzSFJo0SYFH2YYDCKlL4uPMkx84xb4X8lVYD7Kv4AfrkONaBRFxIb87qxbquFBvnkgllbnNcCCpBdkMmYlG3eo11abmoQYNzWh4GSAywLqKXioTKAa48m0M5cZwDlkfp8W/BxACr7B+Cs+aTwcbSjhyTQHUITscqnInkTBrLZDKopdQJ6BoyMRwRoK5w5ZC1EyeB9e8/N17xGT3neLMFt8wjZ76d7YuNhKEtcbSK6HeEvOaGYgo7m9ryi0w4zm4/yEQe3MNLyf1+UIHInN5DWftXSSaRyXyPVDW9dBQJ4KreTUltgtp9BUMywsuyjxgepuxTXfTEOc66kgl71zX4gqjzRpSPQzVvGGniZLK6nXMMCQ8f3ALmzcxw9VPhZJ6d4/qUMvURnOOly/u7qlnrF5lwfEt+kAm2Ie6rfmUve4OgcBPrrTAEQwekwcI5VytfJ2rAfuoroaBamtYwDg7+303kmRxWGr2LKx04i5hKzkIEWRqTQTPhhLvxO0gIuvucOWQib5jjCAm+g9nPp184B7CMZVrQcPkSt8HjVfa6dkr1dNEZfgaTvT7+/Cj7ACnVNSSSyc93gYl39aRerfV/LplQAQU3Zq6zAxyNWTUgsSE/scP1qX6lNrfzGIwc18p4ONdYgkAw6ZBVAB7qlkR3CNWjPulNYNmCoaQTDn8bCEyFlHZmNQ1rjpo86M4+CC/301uFXah7yvJDMOXJC+GeO3po3xHe7js3AB5w07az+xjoIgVSBcUymNrfl1TByIzTtRMnyOS5HdqxlIXC0PXsFNeLGBfNsDFZ8M7cQ+C1TKckQpwbSvg4KzqyILbXSQZF6dDcECx87zLtFaemvkTI5EWAYKr+teIQq8wClvD8+pNiADeEXVwSc3seBzt8B6OPV928GsoOVgK0iCfPUDnbFT6V/JDwp3DKgJL1TDCb9ZEnsuHlKbsBmiWwnTTCNi2rFverQJtEePO5S9gOL3SYZtz4PrRommjELO9wBaxbPozUcrARdJw+9cJmSE3Rk0lJWRX0uaS5sQA2aibTZ283tvN9caW4YFz14NiuG70EmgQTtGPDfowb1VF7Jw3WFXl70V5jH1JSGmjVUUoQ0Ql//6Pr4OOlhwGaxQOkxhn9YTV+s5JqgMIQoIP2uSd6s+qXUH3B/+N5qEnPrIM503NAnBtrGABIqt0n7AM+6MtBMgWUPVwIyXGiONOEO3uwNjFdf1B+nFGs6PeQcC65uKXy+lTnuziWvfu+5wy75h1s221x8OgP4Cb2+vxtonSEeJDMEgMAzj0RU10qwgDolAWAoTeeDreM6sz+NkkmslOooi1bsQveff9bmDP/u5oP4mTVPOU/3Dfb8eJTYPiQ1jCwf1vf79BxNRP2Zc8IIPGt+N9v4bMNubB6XUFkR1U85/UKwmWXpEF631bQ65JWrKJXXjqFptjaz/bDps25sOnLQvhmR7G4LE5EJBIDwjy7qHMQ2rc9BS48rxl073aGb4Tmpb8n6m8wqXRfThHk7D8K5eUhKCuvgpTkBpCcHC/CxO3bNfV0RQ2bTKKBQXLJyy+BoqLymn+lpiYC94LqExVo2y8zArhLVoYiO1dCfAOWVmgx/WUg4JlMfhnw2FFaBCwCXAQsmXCRsu9ZBCwCRgQsmVgBsQhYBHxBwJKJLzDaRiwCFgFLJlYGLAIWAV8QsGTiC4y2EYuARcCSiZUBi4BFwBcELJn4AqNtxCJgEbBkYmXAImAR8AUBSya+wGgbsQhYBCyZWBmwCFgEfEHAkokvMNpGLAIWAUsmVgYsAhYBXxCwZOILjLYRi4BFwJKJlQGLgEXAFwT+Bd1zTmGaIr2qAAAAAElFTkSuQmCC;" parent="3uin5VnQ3zqhtKhshG0Y-33" vertex="1">
                    <mxGeometry x="78.93181818181819" y="90" width="56.11875000000001" height="14.906062500000004" as="geometry"/>
                </mxCell>
                <mxCell id="3uin5VnQ3zqhtKhshG0Y-40" style="edgeStyle=orthogonalEdgeStyle;rounded=0;orthogonalLoop=1;jettySize=auto;html=1;entryX=1;entryY=0.25;entryDx=0;entryDy=0;strokeWidth=3;" parent="CgCXLuuTw9D1Alfjapi0-1" target="3uin5VnQ3zqhtKhshG0Y-32" edge="1">
                    <mxGeometry relative="1" as="geometry">
                        <mxPoint x="1647" y="1997.5" as="targetPoint"/>
                        <mxPoint x="1819" y="1992.5" as="sourcePoint"/>
                    </mxGeometry>
                </mxCell>
                <mxCell id="3uin5VnQ3zqhtKhshG0Y-41" style="edgeStyle=orthogonalEdgeStyle;rounded=0;orthogonalLoop=1;jettySize=auto;html=1;entryX=1;entryY=0.25;entryDx=0;entryDy=0;exitX=0;exitY=0.5;exitDx=0;exitDy=0;strokeWidth=3;" parent="CgCXLuuTw9D1Alfjapi0-1" source="3uin5VnQ3zqhtKhshG0Y-30" target="tkC0pKLUB5LxngkQZ1QE-0" edge="1">
                    <mxGeometry relative="1" as="geometry"/>
                </mxCell>
                <mxCell id="3uin5VnQ3zqhtKhshG0Y-48" style="edgeStyle=orthogonalEdgeStyle;rounded=0;orthogonalLoop=1;jettySize=auto;html=1;entryX=0.5;entryY=1;entryDx=0;entryDy=0;strokeWidth=3;" edge="1" parent="CgCXLuuTw9D1Alfjapi0-1" target="vhKSeT0OAqHSq_wS80SV-1">
                    <mxGeometry relative="1" as="geometry">
                        <mxPoint x="1863.8400007438877" y="1808.8000000000002" as="sourcePoint"/>
                    </mxGeometry>
                </mxCell>
                <mxCell id="3uin5VnQ3zqhtKhshG0Y-53" style="edgeStyle=orthogonalEdgeStyle;rounded=0;orthogonalLoop=1;jettySize=auto;html=1;exitX=0.875;exitY=0.5;exitDx=0;exitDy=0;exitPerimeter=0;entryX=0.5;entryY=1;entryDx=0;entryDy=0;strokeWidth=3;" parent="CgCXLuuTw9D1Alfjapi0-1" source="3uin5VnQ3zqhtKhshG0Y-49" target="vhKSeT0OAqHSq_wS80SV-0" edge="1">
                    <mxGeometry relative="1" as="geometry"/>
                </mxCell>
                <mxCell id="3uin5VnQ3zqhtKhshG0Y-49" value="" style="ellipse;shape=cloud;whiteSpace=wrap;html=1;" parent="CgCXLuuTw9D1Alfjapi0-1" vertex="1">
                    <mxGeometry x="290" y="1708.5" width="430" height="220" as="geometry"/>
                </mxCell>
                <mxCell id="3uin5VnQ3zqhtKhshG0Y-50" value="" style="shape=image;imageAspect=0;aspect=fixed;verticalLabelPosition=bottom;verticalAlign=top;image=data:image/png,iVBORw0KGgoAAAANSUhEUgAAAbAAAAB1CAMAAAAYwkSrAAAAwFBMVEX///8AAVQAAFEAAEUAAEgAAE25ucYAAFLU1NwAAE84OGxbW3w5OWoAAER/f5sAAEt8fJ7e3uQAAEE9PWj4+Prw8PTp6e1lZYoAAD5zc5ZsbJBYWH/Ly9bi4ugtLWWjo7W0tMVZWYMJCVi2tsVHR3R5eZVNTXeRkalUVHq1tccxMWPPz9mHh5/X19llZYU+Pm4pKWaenq4TE1opKWGWlq1fX3wXF1gfH1h5eZGJiZsAADBrbIYWFlsgIWGpqba/v8bXv2oSAAAJ5klEQVR4nO2d61rbOBBAFVnGccF4MXagkEBKgVDIlgItXbaFvP9bbYAUYs3oajmYb+f8LFRRdCxZGo0EYwRBEARBEARBEARBEARBEARBEARBEARBEARBEERTqvHmQRwVWf7t43jgW8hZEdUo7hnb3I0kivWGdS3Hn3gml+pKEfGdq8NB2bAub8RwJxcx7z3CUxGdrvkVs572avAP89YVPZlsq1Fl13pRCsr0Ic1FcXTy4P18vhn9U6kFuNjwUrbOoTD2EIGGOmtS24lIguh6JkkF/zpsUp+VU04z+MDybK9yLwoVxja4XHrUoIXGRUBdz6TiyHNIeQvKDThmPRJfj5zLwoV9Bl2MH3hXt78b3NecJLr57F2l1VJtxIovwbmzMVwYO4BdzLt5TkFZYeDZqfsD+gaU5+r3t7sxhbC1DJSde9Z3CHprMNLou2elVskH3XyLHzkaUwhjN6Bb5Jte1a14yAmHTLTv8d5eLRP8/fUHfuQ25VUJG8IuFntNpjfzkIJgpa6bLThaZ0vvaz5MfHNaWKqEsWPQkeMTj/pW4WeIUoVFt419ML7B868u5SmFDWHPKDya5kQ1QQpGUnR5TdaHIxVAfHQoUCmM/QJdjG8413fU7oC4+MJ953qtjB2bCE/kMHaphQ3g8ilzfpbb72Bzkg6PinZvhMh+QqcWhjQ2P3esLjJ1aYMk7+pccc005VggprYlaoQN4AIqcowHXba0ZpZJ993qtTI+2o4w1oOXRhjSxZIbp+quqIPNEROniq0MGOXhMf5WKy7sStQJG8D+4dYwMMDVSxvshwlNf93t5sRjW65yejpdR4fJJLYzphPGNmGHjhxWecgAnu9t9b35/IMXsSJuwo/dWnJFyNseTxPtKRqsS1KrZ04rrIQl59ZvR2yTJvdZey9XaPT9d4T3s+iwWdHtIDdB/Nfjv56gix3ObUJJWmHsAfYR+wAV3KNJfgbY3l87R7dDk99dTB3AhZV4PDg9s/gKemHsFrSN9YSshI+RCNMLHn5i3zdQ4WHBhbHqG2ost9jXNwiDvcQ6rjABwpKe6/dVUF0iY0ryO1DpIVEIY9UNbuzUWKJBGBK7tEzvqGCb+u+BAv5BZlriIVjxwVAJY9Ut+irOd0yjokkYMtOzWzFMgbBFlsFgS8axEZ64g89DFyeKSmFshCcmGUMeJmHY0u/SoqYVsiJ47mAnu1mdf93aYMEZ/ACf3YSWUQtjX/CoVWYYJ4zC+jB8KSwCVDswELnwDBZ3hVsbLCh/gic07164QyOMjfHciV39i8MojH2F2yzmGDCiOVo8/4GEsSF4Qvm2X0ktohPGDvF0Mn1/MAtD9rjNM+hTYDn9k+0dShj7BQfFzmUEa4WxQzzWqjVmFsb2YMOkhrnMBeztu3+yg4IJG4F6RZ0LKOqFse94WDHSvIwthCG7xqYAFZypxHt/fhZMGNwTj/0Su1rEIIx9woNU5+r9PQthbAq7mNDuGCLbKuIl/S6csJn8fKa/fItqC5MwdolumKXnyiHMRhhymkX/LB/DqO/rBC6cMCYPvNwcKFgxRmHlMW7sQGXMRhg21OrSKA7hG4y/fn5AYeDBiLuWKmAUxsptNEgVHyuMWQmrrmEMWBOggkGX/Or1pwGFXclFZV0Tti01HBTGyhwNeeSK3DcrYewQOeKnDFBdIf1x6ccBhYHdn+IdCmNDPJk9w8MAdsLKb6BMZZJiCbtjbd0WUNjf8uRm9z0Kw3J2n9oFPelhJww7zRLN8DrCFx6vZY+3Kew9DolzhnjIA91EtxTGzmEMGA8EVUjmTu2D2xT2LodEpkxfxIzZCkNOeeFJivC0ijTZpiERAQ959JCQh60wJDqYcGTmOYJR36IeMKJJB8ZHPEgFD2haC4PB8Z5A3oow+T+VVrMBhd3JRUWdF6Y8qLKHGuM92Zi1MGSbpbcLulgffqwckQ0o7EBqjuS2a5lT9sLYV9zYb8mYvbABHOxiEAOW72mZ/86O9CvhhJXyK6x7sUQHYWwdD1Ld1x9Ce2HY/pMcCkKOr8Xye/NEdpo5NsILn0Hwt2GeanhchDE8kyquH9B0EDaA67tYeqSRXF/QCYGwyKkJlgCJ62LsW1RbOAkbHaGZVKL2GDoIQxKhelntBYVkKcBc/GDCLsCg372DfU7C2FaCGqsd0HQRNkDuS6pNAWEAC8mLAduOvsJArD5xPW/YPrKwdE/761t4IHj5gKaLMCwGvJykiGTiI0s1MOnwfIfBT+vgsT5HYayPhxWXshWdhCEbJ0sBKiTxDMvWCTRLHCHrwu5dJ+AqTJX79hq4dRMG7+XriZeiYP9LrpF1URhhA3hVT20TpyM4C2MT3NjLZMFNGHKj0csRogpZM2PRxiDCKuTCLbgqfHvchbGJIvdt8e5xFAaWPvOSFrvJyKUD6JV9IYQN7pElS8NbU1tBXnlYCFMd0Eye+5ijMCS/ZjFzR1Zp+BU1AYRdYEc/UqcbgFYEECbHfTBOFGHFpzTZH47CsFjG3dOnwA6GnyZpPEss19GDH7rsyzfDS1ipyH17zMsp5fip8WjKGRyMxFz9DJmO4JM2uHB2CrH3p/h9z53sYH7CVAc04/3RADzu8mYIYAt2Mb6xdoVc8KCoG+iK6Y7lHY/l6GJyJhRXlWSdvJ3UTxirbvGHMu2Bb6+PnTyCbLNwgaz3IsXJBHiXRMo3rLhJRa66qgPbm+sAnsJY9dP2DiHzudMtu9t4lLcrIpd/9LgVmqtNU5tDhm+ArzA2UF1IIqNON3wBOc2CoMy+x4Q1hndxxsEQYdbRsy+WVyXH5qKQ4+YQ9Q3BbQjLunojur8wNra6CM7qwM53G2PKqV8LwhyuG1wxDYSxB5ur1az+AERpfiFqjhuHFyY666uRMHZovh3T8rwOkj1fJ7lW/+fgwkQnV2DPNBJmbmfbDYoSuVevhu4KldDCXC7MXTnNhCkOaL4Sf7IsCDnDvAy/1/zfwMK6+/56pKEwxXG/13a2DhLdaTtrpFsbBBXGu3nr3gsNhamO1C5w2bHVFaT/iyghheUef89ppTQWputjTkli5bayIMMgFU4Y9/xzMCuksbC5McV7jGdjt4JOFe+xwnCBUChhvLi0vNf4DWkubD7ziLAoVX7j/O3vMmSuGMemcTWMMB6ddy/lBhJCGBvfgw3AVEw9jhFcXMpTDx79Mt4eFEAYz9MzxfnPjiEL415/S7Q8vF3eBOR5tON558/mkVgqKM42LOZsDYUlsSguJ527VErBeSRqZJ53OpZr+69l3E/8Q93leD/PnsspeptWg9RJIRqQHU3HXTtTpGG2JuE/jpcXs3lps9mw8Rm4wXA2Z2jbjH35Ozgwey89iyAIgiAIgiAIgiAIgiAIgiAIgiAIgiAIgiD+7/wHq0OlqQ1gxa0AAAAASUVORK5CYII=;" parent="CgCXLuuTw9D1Alfjapi0-1" vertex="1">
                    <mxGeometry x="370" y="1780.08" width="212" height="57.42" as="geometry"/>
                </mxCell>
                <mxCell id="3uin5VnQ3zqhtKhshG0Y-51" value="" style="shape=image;imageAspect=0;aspect=fixed;verticalLabelPosition=bottom;verticalAlign=top;image=data:image/png,iVBORw0KGgoAAAANSUhEUgAAASwAAACoCAMAAABt9SM9AAAAb1BMVEX///8AovUAmvQAnPQAoPUAnvWKyfnH5fz1+//M5/yn1vr6/f+w2vu83/vE4/zb7v0ZpvXh8f1Hsfbu9/5svviCxvlYt/cuqva23fur1/rU6/1Ar/Z4wvjo9P7f8P2Uzfluv/gAlvSQzPlcuved0vpivCMXAAAIM0lEQVR4nO2d65qqOgyGh6ZFPAMKKOroVu7/Gjcw6uCBc9MEZ70/1zwLymebpknafn394w/geHHK8jClbghvVvNz6MINIXf7SUzdJp6MA1coKa0iUgGE2xV105jhBRIedSoIJvxN0+f8gaE78kWJUje91Nlp8qC5j91UakZRWacqoERQ22vi3X8zEw2m4+BDrVI/csGk8kHLtHuCoUYTcawegI9yRd+lzxlnI1kGBltewDuYeMshatitrojj++dsfkayMNLoV0LLwEs27aRKAf/Vch1sqfI/yrWBNr9hKST+xGKLtlqlgljewzOc7e4+kMk6lrTghPyOS+t+9dO5fp361dYX6v4HRWWxst8czqjv8FW5IJWIRf7/x+co9fgL/66IPNIgb4TYIr6is1Zpu+YLeyeenTNo7OZrBm6tQntD2F2rVJc3XqwM0dpazfz2Jdcer5+gj1ZvkVTLwsv9hxMjlBfMOsyD1QiyWE5hmkJRy9OvFaZ5rWRcnNMxRqKrWysg8hpSjg8GRWifZbQbLEXkumf4j3ONqF7tt2apexDCk1azsd4GV/LsWQu93mmkW6t98emrozLpRBxeliFaVz7zbqucUkTy+2xnlq1/NDa2lvHr1yiNq2q91l3CfQJabcPMrRdLfW2tZ/bmp5eurhRL+7BMFSr6add0ZF9XipDUNEAvx7eTFWiymlo7Vq7Mchb8LqnlRU8zmxK8D/QKLT9ZrLVjnZN1JIorRenqaGQL9iVRcdAxy6ybh9wbIJ+SspZqlDHTyKnse6TV33ZqngqfMGvcMyp+/N5Dca492vDQPKwgSTllwzADdv36ud5R+KwVQYq1xMD/IKFXizA7lp4ZqCXvXYc74HfvXEtEk0Wi1de25ueXNXn0Ho8enFZfi9ovgqjjrFNlDntqpTk00hSvwVgR+04h7x2aVlSpnUa+kFRduj2WydK1FutAs4ATuK0TZY722HuOtIjy9hmVvkNRrqhlNqPJAG8P7CiLI5u72bBrJZfeVfQVsa9/MSJtRgtELQbjCMFzALyseTP8NjM8uI1zdvVOSXvI674n7T4KwG5mYRGW0abjV6+0nrWk8JuMBoSeJdHFqCVs7WlLpYJat/5NKqQvDOqTO32VBPdYXk6cgbCOZiBW10SoAteuKGdZfaZY3TOhEtR6UzZFfaZYvTJWEoS737ybILWXz/AQa9xzGScBZHhcPCmmP6qsaOR5ov2E+EI6QwLs9sl8eYutJvp9B1KRbji67EsuGbj+OjhObO09i94pzXlX8tADKVPV9AdKI2qZrmgYiOgY2DTTEGolGmC6DqSc16o2dkjaYFaRvv4DPtKm1uiXDXe1FFEG7E4xUqx/K4ReyOOk//mFtTDzvgXUJ4qAhOg3Z4kQg9IIECbBcvIyVtjfRuPBRa2p6ocgVerrFstKV8JhEucZuRNftchXO/fcjlQg3DBI5heuvjzZjsw7j6UuOEs6TdC7WQhxFCwU+dkzGHljJMg9h68Vb9eqiDBd9v6K/kg5FuSTIWYxo2aoDp8pglvZr5FO1YeamQ7FaNHb969hBJQzyBc7GUMZhztqoXKGIRa9/55zHoRayvwmsHcg1WBrRjA5wrVpdTcpPEyWxuQ9IqrkaEnz1Oyj4wAY3+NbCrUU9TCovb3BPsHKKBmdLqeZD0TAOTSuI8wjNSwKJO/wrguRJ2p9HllwNlu8RmHKhLFajObCK2e2I5Hq6Pcq2KrFyCP9JWE6ErkU3j4yZ6kWeRFbCd8WwwgEMInOvBKyM1zcnKwimwYX4xjF/KFiLZieWtz4go/kEvYr4bvmhiqjkJfd1hKHgkscgkGJQy2rs8XCeCmyw9/bEdsu/XDktywsxTkSa2X4QOA2xPYmvl6P6hzimR1KasvFuWMJBSAAlBLZRanPR86ap/uJgwZgV9pGLUgV2m9R6Ee/c1LR2bHqWsx9rAWndTS70Pszum/o6AGfDeRlMEpOU9332AI2NaZU9z22gc2eC87+6J2Eh43nH5rJYeE+0O8ubIZDvSDMAPptTc2I6c0Wc9+9yJZaLf4uVgGb2MgPZhDm7EnVQrx5GIWAUC11ov76thzp7BbzYMM7yKpEyI9R6YLnknindPd59GNN0LkIbz7uycgy7c1zL22o5Gw6z8q2GKsJzt6kXIM07kUc29hxPoLuAiJ9zPOLiPG1Gs7yuZLp/GSJtIdhSgZsdmBqYLVI9r6r0C4BG6zTUIGHs4VseCvCBiBt8gEGB/PoZopU+w1sTpnWxxzJiVCf16+cC5JxhxP1p2lni+Wbft48GEdYPgPR5b14rC5o4ZqhBrDKwFxNszhyTR8rRKkk/Q2POlmuEWM0akjZ1Fo2O8xwluBx3poWloHCDCtL4HHcmga+jy5uDAuiDzFXo8AF5FzFRwzB6fjoA3pcVFlD9xgOo+TkCjAQcSe+arwds1Mym4/j5bfnLePxYjM578NMJjOZCWUNKzERu9kOsCsKkKPrD8gBWqstqltQDvhDzA1OA4JdvWANrFDtzuFiWC7F4VT3zixNHuEgwR50JUNq6U3JJUUwqLLa9yxNDEYF9gdIlXHY465tJFjJwAdgkWmCt2qWYjfUGbCU0QXj/BmpVOBRfxoGziTSq5cEEX5cp/rFO2oLzaRK+dsPMeqleMmuf+WaBLjMPl2pH5zNWnYP1EglIntYYYW+eNt1XurXUieAnb34G13qidXiHFqiyQk+2Z2bqU7BlvNphgZw4pl9ibLDj/KoV0auTk4mUfonNwwmoyFGXpBwvPF8cgz2l9D/Ibys93aynY+9Pznq/vGPJ/4H65yHmbiySpYAAAAASUVORK5CYII=;" parent="CgCXLuuTw9D1Alfjapi0-1" vertex="1">
                    <mxGeometry x="550" y="1820" width="110" height="61.6" as="geometry"/>
                </mxCell>
                <mxCell id="3uin5VnQ3zqhtKhshG0Y-52" value="" style="shape=image;imageAspect=0;aspect=fixed;verticalLabelPosition=bottom;verticalAlign=top;image=data:image/jpeg,/9j/4AAQSkZJRgABAQAAAQABAAD/2wCEAAkGBw8NDg8NDQ0PDw0NDw0QDw8NEA8NDQ8QFRUWFhURFhUYHSghGBolHRUVITEhJSk3Oi4vFyAzODMtNygtLisBCgoKDg0OGBAQGi0dHx0tLisvLS0tMC0tLzIrLi8tLS0uLS8tLS0rLS8tLSsuLS0uLy0yLS4vLS8tLSsrLy0tLf/AABEIAMIBAwMBEQACEQEDEQH/xAAcAAEAAgIDAQAAAAAAAAAAAAAABgcBBQMECAL/xABNEAABAwICBgUHBwcKBwEAAAABAAIDBBEFIQYHEjFBYRNRcYGRCBQVIjKx0SNCUoKSk6EXM1NUVXLCQ2Jjc6KywcPh8DZkg6OztPEl/8QAGwEBAAIDAQEAAAAAAAAAAAAAAAUGAQMEAgf/xAA2EQEAAgECAgUKBwEBAAMAAAAAAQIDBBEFMRIhQVGhEyIyYXGBkbHB0QYUQlJT4fCS8SMkM//aAAwDAQACEQMRAD8A16pr6mICAgICAgICAgICAgICAgII1pviDooWRRvLXyuJJaSDsN3i/aR4KU4Zhi95taN9le/EGqtjx1x0nabT2d0NBTzYnCxsjDOY3gOaSOnbsnMZG9lIWrpL2ms7bx7vshMeTiWGkXr0ujPXH6o+uzt0+mc7MpoWPt1bUbu/f7lqvwvFPozMeLqxfiLUV6slYt4T9fk21LpjTP8AzgkjPWRtt8W5/guO/C8sejMSk8P4h09vTia+Mf73NVidbPitVHQ0IdIJXtZGxlwZnH5zr7mjPfkALnlIaLRxir0rR50+CE4txOdTfoY58yPH1z9Fj0Pk/wB4b1GJ7NQRuhg24WOtuu5wLxzyXehle6Q4HXaM1oimIcx42o3s2ugqY72O/c4cRvFxvBBOnPgpmr0bf+OrR6zJpckXpPtjslLqadssbJGZte1rh2EXVWyUmlprPY+iYctcuOuSvK0buVeG0QEBAQEBAQEBAQEBAQEBBhBlAQEBAQEBAQV/pE81mIiBpya5kItnbP1j3EnwVi0kRh03Tn2/ZR+J2nV6/wAnXsmKx9fHdPmMDQGtFg0AAdQG5V+0zMzMrtSsVrFY5R1OKopIpRaWJj/32td716plvT0ZmGrLpsOX/wDSsW9sNTVaJ0knssdETxjcbeBuF2Y+JZq8539qMzcB0l/Ria+yfvuzqLkjhx+Nk9g90VTFFtcJrbr8DsteO+3FWGJiY3hR7VmszE9j06ssKZ8pSoi82oITbzgzyvaN7hEGWf2Aks7bckEO0Va4UMAdv2XHPqLnEfgQqzr5idRbb/dS/wDBomNFj39fzltlxpQQEBAQEBAQEGEGUBGBGRAQEBAQEBAQEBAQcNXUCKN8rt0bHOPOwvZbMVJveKx2tOozRhxWyT+mJlCtCoDNVPqH59GHOJ/pH3F/DaU5xK8UwxSO35R/oVHgOGc2qnLbr6PX75/0p2q+uggIIfpLgUrZvPKPa2toPcIiWyskGYkZbPeL5Zg59k5odbXoxjyTtMcpVLjHCb9Oc+GN4nrmI5xPf6927pNd+MwxdC9tJK9o2elnhkE2X0g17W37lLKzMbI66OuxyqNZXyPcH22pXjZGwN0cTdwGZ3ZZk79/HqdZTDE9e9u77pTh/C8uqtEzG1O2ft3prGwMaGtADWgBoG4AZAKt2tNpmZ7V9pStKxWvVEdT6Xl6EBAQEBAQEBAQEBAQEBAQEBAQEBAQEBBHNOKvo6YRA+tM8DnstzP47PipPhmLpZZt+36oD8QajoaeMcc7z4R1/PZyaF0nRUgeR60zi/6u5vuv3rzxLJ0s3Rj9LZwDB5PTdOed5393KG/UemxYBAQfLo2k3LQT1kAleulMdrzNKzO8xD6WHoWAQEBAQEBAQEBAQEBAQEBAQEGCbLOzEztzZQiYFhlrsRxunpspJRtj5jPXf4Dd3rqw6PLl9GOrvlH6riem0/Ve2890dc/170crNNnG4ggA6nSkuP2Ru8VI4+FVj07b+xBZ/wAR3nqxUiPXPX4QzRR47iFjTU1W9j/ZdBA5kVv6y1vxXZTQ4K/p39qLycX1mTneY9nV8m1g1YaST5vgkYDxmq4h+G2T+C3xipHKsfBx21Oa3pXmffLnOpTG3Zu82+tUEn3L3ERHJqmZnm45dUekMI+Sia+24Q1cbfDac1YmlZ5xD3XLkr6Npj3tfVaO6R0Wb6SuIHFrfPGjtLdoALTbSYbc6x8nTj4lq8fo5J987/Pd0YdL6mJxZUQtcW5OBDoZAefV4LlvwvFPozMeKSw/iHUV9OIt4T/vc3lBpVSzWDnGFx4S5N+0MvGyj8vDc1OuPO9n2TWm47psvVbzJ9fL4/fZvGuBAIIIO4jMFcExMTtKZi0WjeJ3hlYZYvw49SztLHSjkysMiAgICAgICAgICAgICAgICCN6T6RebfIQ2M5HrOOYjB3ZcXKU0Oh8pHTvy+av8X4vOnnyWH0u2e7+2cF1Z43i8YqXMEcbxtMfXSOjLweLWWLgOo2AI3KcpStI2rGyoZc2TLPSvaZn1ulpJoji2juxLOWtikdsskglbJE99idksNjuB3tsvOTFTJG143e8Gpy4J3x2mv8Au7lLpjGa/EnspaSJ5leANima50jzxN97W+7iVzYdBhxzvtv7XfqeNanPWK79GO3bt/3csPRLUTLIGy4vUdCDY+bUxa+bsfIbtad+QB7V2ola+AaC4XhwHmtBC17f5WRvTT/bfcjuQSNAQEBAQa/FsEpK5uxWUsFQ3h00bHkdhIuD2IK00o1F0U4c/DZn0knCKQmemPK59dvbc9iCpsXwfFtHZQypic2JzrNcLy0cv7ruB42yPJaM2mx5o86Pf2uzSa/PpZ3x26u7s+Drx12IYxUMpKJjtuS+xDE4MLrC5LnkjLI7zZasGixYo5bz3y6NZxbUamefRr3R9e9JX6ksaazpWmlc8C/RtncJb9Vy0Nv9ZdiL37UfgxStwuoNJiMco2DZ7JgelYPpNJ9ofgRuXBqdBTJG9eqUzoOM5tPaK5Jm1fXzj2T9PkmcUge0PaQWuALSNxBzBVetWazMTzheKXresWrO8T1vteXoQEBAQEBAQEBAQEBAQYcbAk7gCVmI3nZ5tPRiZ7kf1P4MzF8cD6pofHAyWsex2bHua5oY08tp7TbiG2VvpWKVisdj5llyWyXm9uczu9EaXaS0+EUclZVO9VvqxxggPmlN9mNvM2PYATwXpredqSkxTTTE3Pe7ZiZbbeQTTUcJOTGji42yG9xFyQLkB6E0Q0PosGh6GjiAe4DpZ32dPMRxc7q5DIdSDfoCAgICAgICAg4K6iiqYnwVETJYZBZ8cjQ9jhzBQee9Z2q+XCHek8KdIaSNwe5rXO84o3A3Dw4ZlgPzt4433oLB1QaxvTERo6wgYjA2+1k0VUYy6QDg8fOA67jiAHFr90fiqcKNdsgVFA6Mh4HrOie8MdGesXcHcrHrKCq9B6kvpSx2fRSOaP3SA73kqA4pSK5YtHbC6/h7LN9NNJ/TPV7J6/nukSjE8ICAgICAgICAgICAgIMOFwQdxWYnad2LRvEx3o1qtxxmB42POjsQyCSlmkOQY1xaWyHltNZfkSVbsd4vWLR2vmWbFbFktjtzrOzYa0scm0gxtmHUZ6SGGUUtO1pvG+Ym0kxIG6+W1u2WX4le2pfuh+jUGEUcdHTtFmjalktZ80pA2pHczbuAA4IN0g+JpWsa57zZrGlzidwAFyViZiI3l6rWbTFY65lUOP6W1NZI7YlfDTg+pHG4sJHAvIzJPVu96rmo12TJbqnaF70PCMGnpHSrFrdsz1/D/buvhGk1XSPDmzPkZcbUUz3PY4dWd9k8x+K8YdZlx2333jubdVwvTaiu01is9kxG0/371wYdWMqYY54/YlY1wvvF+B5jd3KyY7xesWjtULPhthyWx251nZ2V7ahBXunOlsrJXUdI8xiOwllb7ZcRfYaeAHEjO/VbOG1+ttW3k6TttzlauD8Jx3xxnzRvvyjs9s96G0+MVUT9tlVOHDO5ke8HtDiQe9RtdTlrO8WlYL6LT3r0bY67eyI+S1dDcf8ASFOXPAE8RDZQ32TcXa8dQOfeCrBo9T5em8845qRxXQfk8u1eutuuPt7m/XWjHy9gcC1wDmuBDmuALSDvBHEIPMmsXAJdGMYhq6AlkEjzUUh3tY5p+Upz1tG0Bza8DPNBNNbun9NVYHTw07wZsVZBK+MOu6CJjg5wdbj0jNi3GzupBB9CaUx0m04WMzy8cPVyA9xPeq9xPJFs20dkLv8Ah/DOPTdKf1Tv7uSQKOTggICAgICAgICAgICAgII7pZgjJ43VLTsSxMcSeD2tBNjz6j/sSeg1dqWjHPXEz8EBxrhtMtJz1na1Y6/XEfXu+Hs3Hk6YS2bEqireAfM6ezLjNskx2Q4fVbIPrKfUt6LQEHRx2mdNSVMLPbkglY3m4tIAWrPWbY7VjtiXTo8lcWox3tyi0T4qMItkRYjeDkQepVOY2fSoYQXNoTSvhw6mZICHFr32O8B73PA8HBWfRUmuCsS+e8Wy1yazJavLl8IiPo3i6kcIKT0rpXQ19U197umfI0nix5LmkeNu4qr6yk0zW379/i+icMy1yaTHNeyIj3x1NUuV3rB1U0zwKqYi0buijaetzdou8NoeKm+FUmItbsVT8SZazOPHHON5+O23yWApdVxBXevfCm1OCSy7N5KKSGdhG+xcI392y8n6oQeftF8CFW4ySOtFG4BzBfbed9uQ5/8A1cOt1fkI2iOuUxwnhkau02tO1a847ZWE1oAAAAAAAAyAA3BVyZmZ3leq1isREdUQ+lhkQEBAQEBAQEBAQEBAQEHSxlpdS1AG8wy2+yVv007Zqe2HHr6zOlyxH7Z+TbeTRO0S4nFf1nx0jwOOywyg/wB9virW+cL4QEBBF8e0Jpqx5ma50Ezs3FgDmPP0i08eYIXDqNBjyz0uUpnRcbz6asUmOnWOW/OPe4MH0Ap4HiSaR1QWm7WuaGRX4Etzv425Lxh4bjpO9p6XybdVx/PmrNKR0In3z8exL1IoEQEGo0g0dp8QaBMC17L7EsdhI3lnkRyK59RpqZo2t8XdouIZtJaZx8p5xPJHKfVtEH3kqpHsv7LWNjceRdc+5cVeFUieu28Je/4kyTXauOInv338OpM6Kkjp42wwsDI2CzWt3D4nmpKlK0rFaxtEK9ly3y3m953mXOvbWIIfreqGxYDiDnfOiZGP3nyMaPegoPV+z5KZ3AyNHgP9QoTi0+dWPUtv4brPk8k+uP8AeKVqIWYQEBAQYQZQEBAQEBAQEBAQYcLgg7jkVmJ2ndiYiYmJ7UW1f4z6Bxxjpjanc51PO4/oJCNmTsBDHHk0q24ckZKReO1801WCcGa2Kf0z/wCeD1UDfMZg7iNy2NDKAgICAgICAgICAgIKR8ovSZuzBhETruLhUVNj7IAIiYe27nW5N60EX0YojT0kbXCz33keNxu7cD3WHcqzrsvlM0zHKOpf+D6byGlrE87dc+/+tm1XGlBAQEBAQEBAQEBAQEBAQEBBG9MMGNQwTxC8sQzaN72fEfHkpTh2q8nPk7cp8JV/jnDpzU8tjjzq8474/pONS+sxpbFhGIyBr2hrKOoebNe3c2neeDhuaeO7fbanlMXagINRpd556PqvRtvPuhd0F7X2uV8tq17X42QUfoVrirMPe6lxlk1TG15Be4BtbA4ZOaQ622L8DYjPPggtzCtY+DVbQY8Sp2E/NqXeavB6rSWv3IN2zHaJwu2tpSOsTxEe9B1KzS/C4BeXE6JnI1ERd3NBuUFf6Xa8KKBjo8La6qqCCGyyNdFTMPXZ1nP7LAc0DUbi2M17qqqxCaSahePknzADanDs+isB6gG0DbK9rcUFtoCCI6xNO6fA6cucWyVkrT5vT3zcd22+25gPHjuHIPOeDUs2KVclfWOMm1IZJHv/AJWTeGj+aMsuAAC4NdqoxU6NfSnwTPB+HTqcnTvHmV8Z7vunKrq9CwCAgICAgICAgICAgICAgICAgiukei/Skz0wAkNy+PcHnrb1Hlx98vo+IdGOhk5dk/dWeKcE6czl0/Ptr3+uPs3+gWuGqw7Zo8VZJU0zCGiQ5VkAHA3/ADgHUTcdeQCmomJjeFTtWaztMbTC99H9I6LE4+loamOdthtBptIzk9h9Zp7QssNqgjOlmgeG4v61XTDprWFRCeiqAOHrD2rdTgQgrbEvJ/aXE0mJlreDKiAPd3va4f3UGofqCxC/q11GRz6cHw2UHZpfJ/qT+exOBn9VDJL73NQTTR3UthVG4STiStkbYgVBDYAevo27+xxIQWPFG1jQxjQ1rQA1rQGtaBuAA3BB8VVVHAx0s0jIomC75JXNjjaOsuOQCCo9Odd0EAfBg7RUT5g1MjSKaM7iWNNjIee7cfWQVNRYXVYrO6tr5ZHCU7T5ZDeSXk3qbw6gLALg1Wurh82vXb5JnhvCMmpmL382nf2z7PumtPA2JjY42hrGiwA3AKv3va9ptad5ldsWKmKkUpG0Q5F4bBAQEBAQEBAQEBAQEBAQEBAQEBBr8VwaCrHyrPXtlI31ZB38RyK6cGryYfRnq7uxwazhuDVR58dffHP+/eh2JYVPhj21EFVsOB+TfFI6CoHZY37wVO6XWRn6tpifD4qhxDhdtH19KJifdPw+yUYBrqxels2d0VbGP1hmxNbqEjLeLgV2IpO8L1+UTwBV0NTC47zC6OoYOdyWn8EEiptcOAvtetfGTwkp6nLva0hB3m6zsDIv6Uh72yg+Bag69RrawGPfiIceqOCpf+IZZBpMR16YTFlDFV1BzsWxsiZ4vcD+CCGY3r6rZQW0VHBTA3G3K51TIOojJrQe0FBAavFcQxucNq650rr3aJ5NiJp3epGPVB5NC15csY69KYmfY6NNp7ajJGOsxEz3zskeE6KwQEPk+WkHFwtGDyb8VB6jiOTJ1V82PFb9FwLDh87J59vD4fdv1HJwWAQEBAQYQZQEBAQEBAQEBAQEBAQEBBq8fxdtHFtZGV9xGw8T1nkF16TTTnvt2RzRvE+IRo8W8ddp5R9fZCE1WG1k9K7FpgfNzOynbJIbdJKQ52xGOIAab8ArJTHWlejWNoULLmvmvN8k7zK8tROBwTYG/wA6p4Z2VFZO/YnjZK2zWxs3OB4sPivbWkGJapMDqCXeZdC48aeWWIDsbfZHggj1RqEw036OsrWcnGCQD+wEHTPk/wBNwxOe3OGM/wASDmh1A0I/OV9W79xsLPeCg3WH6lMEht0kdRUH+nnc3/xBqCTwaH4dTwSxUlDTQmWKSMvZE3pCHNIzefWO/rQeT9H8AqcSkkhpGCSaKGSbo72e9rCLtYOLs724268kEg0U0gc5wpKknb3Rvd7Vx8x3Pq8FDa/RRETkxx7Y+q1cG4tabRgzTvvyn6T9PglyhlpEBAQEBAQEBAQEBAQEBAQEGEGUBAQEEKpaGTHcZioo3EMkl6MOGexCy5kkHOwcfAK06TD5LFEds9cvnnE9VOo1NrdkdUeyPvzWnr9ooqTBKCkp2COCGrjbGwbg1sMo7znmeN10o9JtRrANH6M/SfVk9vTyD/BBPUBAQEBAQeadTvyOk/RDcTiEXc0OP8CDv6/tE20VVFitM3YjrHETBmQZVD1tsdReAT2sceKc2YmYneHXwWt85p45vnObZ374yd+IVV1WLyWW1ex9F4fqfzGnpknn2+2ObvLndogICAgICAgICAgICAgICAgICAg6+IS9HDLIN7I5HDtDSVtw16WSte+Yc+ryTjwXvHZEz4OXybqAPr6ypOZgpmxt6gZX3v22jI7yra+aJP5SQ/8AzqM/85/lPQSPUh/w9Q9tX/7EqCdICAgICAg80arhtaWgjcJ8UPd0cw/xQW/rpoBUYDWZAug6GdhPAse3aP2S8d6CjtAZbwSs+jLcfWaPgoLitfPrPfC4fhu++K9e6d/jH9JQopYxAQEBAQEBAQEBAQEBAQEBAQEBB1MVjL6edo3uhlA7S0rfp7dHLSZ74+bl11ZtpslY7az8nf8AJqqWiqxCEn15IIJAOJbG9zXH/uN8Va3zZKfKMhLsIgcB+br4SeQMUw95CDY6hptvAYG3/NTVTDyvIX/xILDQEBAQEGHOsCTuAJKDzXqHBmx8ykZiCrlPLaLR/GguXW7VCHAcQcfnRNjHMyPawf3kFB6v2fJTO4GRo8B/qoTi0+dWPUtv4ar5mS3fMR8P/UrUQswgICAgICAgICAgICAgIMIMoCAgIMELMMTG6KaD4t6Bx2OSQ7NPtuhmPDzeXc88h6jvqq2YMsZMdb975tq9POnzWxz2T4dngvHXXTdPo/VuZ63R+bzNtmCBKy5+ySVtcyO+TdWB2H1lPfOKrEluoSRtA/GNyC3kBAQEBBqdLa3zbDa6o4w0lS8cLuEbrDxsgpPybKParq6p/RUrIvvZA7/KQbTyjNJWhlPhETrvLhU1Nj7LQCImHtJc63DZaeKCLaL0RgpI2kWe+8juBu7cPCw7lWddl8pmnblHUv8AwfT+Q0tYnnbrn3/1s2y40oICAgICAgICDCDKAgICAgICAgICAgjuluCGpYJoheaIHIb5Gb7do4dpUnw/VxjnoW5T4IHjXDZ1FfK4486vZ3x94bTQ7WO04ZUYDirnCKSmmp6aqsXdDtMLWRyDfsg2sRuyByzE+pTn8nHE+jxGqpDkKqmDxzfC7IfZe89yD0QgICAgIK+164n5tgU7L2fVywU7bb/a6Rw+zG4d6Cq9XWnNNgGFVT2tE2JVk9oocwxkbGANkldwG06T1RmeQN0EbwiknxSrfX1rnSB8hkke/wDlX/RA+iMshkAABy4Ndq4xV6NfSnw9aZ4Rw2dTki948yvj6vunCrq9CwCAgICAgICAgICAgICAgICAgICAgINJjOjUNUS8fJSne9ouHfvN49q79Nr8mKOjPXCH13BsOpmb1823fHKfbDQ6OVLsDxmknkILYJmF7hexheNiQj6rnd4U7gzVzUi9VN1elvpss4r9j1yCCLg3BzBG4rc5mUBAQEHn/wAo7G+kqqXDmG4po3TSgbuklyaDzDW3/wCogiOF6GtFn1L9rcejZdrb9RdvPdZQ2fik9cY49616P8PR1Wz239UfWft8Uqjjaxoaxoa1osA0WAHUAoi1ptO89crNSlaVitY2iH2vL0wgygICAgICAgICAgICAgICAgICAgICDT4jpJS05LS8yPG9sQ2rdp3fiu7DoM2SN9to9aJ1PGtLgno79KfV1+PJENJcXirHMfHG9j2AtJds+s3eN3Ub+Kl9Hpr4ImszvEqvxXX49Zat6VmJjq6/D6vRWpbScYlhUcb3XqaDZp5QTdxYB8lJ15tFrneWOXaik+QEBB1sTr46SCWpndswwRvkkd1NaLm3WeSDyBiWPGsxOTEqppd0s7pSwEEgD83GDxDQGt7AteWtrUmtZ2mW7T3pjy1veN4id9klptMKV5s8SR83NDm/2ST+ChL8LyxG8TErfi/EOmtO1omvjHh1+DfQytkaHscHNO5zSCCo61LUna0bSm8eSmSvSpO8T3OReXsQEBAQEBAQEBAQEBAQEBAQEBBhBlAQRTTTGXRWpYiWue3akcMiGnc0dvFTHDdLFv8A5be5WePcQtT/AOvjnbfnP0+6d6Bako3xR1WMPk2pA1zaOI9HsgjdK/ffMeq21rbzuE0qScTao8BczYGH7GRAeyep2weu5fn3oKVwetqtDscfHMHPhB6OYNFm1FK43bKwHK43jmC2+9B6bw6uiqoY6inkbJDM0Pjew3a5p/3u4IOwgIKD17adtqXehaJ+3HG8Gsez1g+VpGzACN+yRc/zgBwKCS6Ban6GOiikxal6aulHSPa+SVrYQ72YtljgCQN975k8LIO3pBqTwmpjd5oJKKbMtcx75or/AM5khOXYQgpOSCq0fxB9FViwa5vSBtzG9h9maM8Rb3EGxGXLq9NXPT1xySPDeIX0mWJ/TPOPr7YTYG6rE9T6DExMbwysMiAgICAgICAgICAgICAgICAgICAggOOzmlxVtQ6MSCKWmmDH5NkazZOyeRLSFZeHzE6eu3r+ag8arMa2+/bt8oWD+X+q/ZtP97J8F2oo/L/Vfs2n+9k+CCKafaxPTsUbJ8OhimhN4qiOR5ka0+0wgjNp/AjtuHV0E1iV2BlzIS2alfcuppiejDvpsIzYezI8RuICafl/q/2dT/eSINVpJrsxGtp3U8EUdH0lw+WFz3TbP0WuPsdoz6rIIVojjceG1bKx9JHVPh9aJkzi2Nkl8pLAZkcOo57wEFl/l/qv2bT/AHsnwQPy/wBV+zaf72T4IINrB01fj00M8lLHBJDGYrxuc8vaXbQBJ6iXfaKCX0TC2KJrvabHGHdoaLqpZpiclpjlvL6ZpazXDStucRHyc61N4gICAgICAgICAgICAgICAgICAgIOOWnjk/ORsfbdttDreK91yXr6MzDVkwY8np1i3tiJcfo+D9BF92z4L15fL+6fjLV+T0/8dfhH2PR8H6CL7tnwTy+X90/GT8np/wCOv/MfY9HQfq8P3bPgsxny/un4yfk9P/HX/mPsejoP1eH7tnwTy+X90/GWPyWm/jr/AMx9j0bT/q8P3bPgnl8v7p+Mn5LTfx1/5j7Ho6n/AFeH7tnwTy+X90/GT8lpv46/8x9gYdB+rw/ds+CeXy/un4yz+S038df+Y+x6Pg/QRfds+Cx5fL+6fjJ+T0/8dfhH2PR8H6CL7tnwTy+X90/GT8np/wCOvwj7PptDC0hzYYgRmCGMBHfZJzZJ6ptPxZrpcETvFKx7ocy1uhhYZZQEBAQEBAQEBB//2Q==;" parent="CgCXLuuTw9D1Alfjapi0-1" vertex="1">
                    <mxGeometry x="460" y="1837.5" width="79" height="59.17" as="geometry"/>
                </mxCell>
                <mxCell id="3" value="" style="group" vertex="1" connectable="0" parent="CgCXLuuTw9D1Alfjapi0-1">
                    <mxGeometry x="1810" y="1750" width="390" height="130" as="geometry"/>
                </mxCell>
                <mxCell id="4" value="" style="ellipse;shape=cloud;whiteSpace=wrap;html=1;opacity=50;" vertex="1" parent="3">
                    <mxGeometry x="30" y="3.5" width="390.00000000000006" height="130" as="geometry"/>
                </mxCell>
                <mxCell id="10" value="&lt;b&gt;&lt;font style=&quot;font-size: 30px&quot;&gt;NLP&lt;/font&gt;&lt;/b&gt;" style="text;html=1;strokeColor=none;fillColor=none;align=center;verticalAlign=middle;whiteSpace=wrap;rounded=0;" vertex="1" parent="3">
                    <mxGeometry x="150" y="49" width="180" height="41" as="geometry"/>
                </mxCell>
            </root>
        </mxGraphModel>
    </diagram>
</mxfile>